<svg xmlns="http://www.w3.org/2000/svg" viewBox="0 0 301.46 301.15"><g id="Calque_2" data-name="Calque 2"><g id="Calque_1-2" data-name="Calque 1"><path d="M159.83,234.8c-1.44,2.33-1,4.21-1,6,0,17,0,34-.07,51,0,5.94-2.64,9.05-7.46,9.35-5.34.34-8.68-3-8.72-9.1-.09-17,0-34-.07-51,0-1.9.62-4-1.15-6.22-5.41,5.3-10.53,10.69-16.25,15.43-9.8,8.12-20,15.56-32.22,19.64a27.17,27.17,0,0,1-8.85,1.3c-3.34,0-6.36-.77-8-4a8.31,8.31,0,0,1,.76-9.43c2.54-3.26,3.62-7,4.87-10.85,1.17-3.55,0-5.32-3.3-6.42-8.49-2.87-17-2.45-25.63-.64a54,54,0,0,1-5.86,1.22c-4.86.47-8.64-1.75-9.09-6.49-1.06-11.33-16-22.81-27.19-22.6a12.36,12.36,0,0,1-5.33-1.15c-4-1.82-5.81-4.93-5.11-9.24s3.48-6.3,7.64-6.57c18-1.19,31.13-10.49,41.54-24.53,2.58-3.5,2.93-7,.93-10.74C44.05,148.13,36.75,138,22.11,136.09c-6.93-.93-10-8-5.45-12.55,12.43-12.5,8.26-25.42,2.13-38.66-.69-1.51-1.57-2.94-2.4-4.38-2.15-3.73-2.21-7.43.81-10.6s6.62-3.29,10.54-1.41c6,2.89,12.24,5.39,18.92,6.21,5.89.72,11.51,1.65,16-4.71,3.64-5.23,10.3-3.21,14,3.39,4.8,8.55,10.8,16,19.47,20.94,7,4,8.38,3.34,11.15-4.22,4.27-11.63,4.32-23.84,5.3-35.93.5-6.25,2.07-8,8.21-9.33,10.13-2.16,14.13-10.4,17.93-18.61,2.63-5.65,3.11-11.88,3.86-18C143.22,2.77,146,0,150.73,0s7.59,2.85,8.08,8.28c1,10.64,3.5,20.69,10.46,29.17,3.26,4,7,7,12.41,7.6,4.92.55,6.87,3.83,7.19,8.66.61,9.13.88,18.31,2.8,27.3.83,3.89,2.25,7.65,3.37,11.49,1.25,4.3,3.82,4.69,7.65,3.09,9.76-4.11,15.94-11.88,21.16-20.51,6-9.87,10.13-10.5,17.49-1.9,1.52,1.78,3.39,1.85,5.39,1.94,9.07.43,17.5-2.09,25.53-6,4.28-2.06,8.3-3,11.92.71s2.61,7.91.17,11.92a57.67,57.67,0,0,0-7.06,18.08c-1.63,7.78-.19,14.8,5.29,20.92,7,7.77,4.91,13.74-5.25,15.68-14.73,2.81-21.73,13.68-27.16,26.12-1.09,2.49-.14,5,1.36,7.08,10.12,14.23,23.19,23.71,41.11,25.3,5.68.5,8.54,3,8.8,7.63s-2.92,8.33-8.16,9.13c-3.61.55-7.31.44-10.78,1.88-9.4,3.94-16.4,10-18.68,20.47-1.31,6.07-5.47,8.39-11.57,6.69-8.63-2.4-17.34-3.21-26.15-1.23-6.91,1.55-7.64,3-5.72,9.54a23.75,23.75,0,0,0,3.82,8.06c2.34,3,3,6.34,1.27,9.83-1.83,3.68-5.23,4.31-8.91,4.21-10.15-.28-18.43-5.35-26.53-10.64a160.61,160.61,0,0,1-26.73-22.45C162.27,237.05,161.17,236.07,159.83,234.8Zm12.34-40.52c1.7,1.19,3.58.65,5.33.66,13.5.06,27,0,40.49.08,4.36,0,7.45,2,8.22,6.48.75,4.3-1.2,7.39-5.06,9.33-2.33,1.18-4.83,1.16-7.33,1.16q-22.5,0-45,0c-1.26,0-2.88-.55-3.64.88-.64,1.22.53,2.19,1.21,3.05a149.06,149.06,0,0,0,32.29,30.34c2.72,1.88,3.73.95,3.94-2.17.8-11.87,5.22-16.89,16.74-20.24,8.35-2.44,16.83-2.12,25.3-1.67,3.24.17,5.34-.51,6.93-3.42a38.34,38.34,0,0,1,9.51-11.49c3-2.43,3.2-3.73-.42-6a76.89,76.89,0,0,1-24.78-24.94A20.11,20.11,0,0,1,234,157.72c5.2-13.78,13.37-25.25,26.22-32.94,1.68-1,3.35-2,2.38-4.22-3.56-8.33-3.33-16.89-1.71-25.53.64-3.43-.89-4-3.91-3.55-6.46,1.06-13,1.2-19.31-.67-3-.89-4.55.6-6.28,2.67C224.9,101.21,217.67,108,208,111.73c-13.95,5.34-22.69,1.53-28.37-12.2-4.53-10.94-5.76-22.52-6.87-34.13-.27-2.81-.76-5.2-3.6-6.58-6.63-3.23-11.64-8.33-15.57-14.43-2.47-3.85-4-2.82-6,.31a37.45,37.45,0,0,1-14.45,13.51c-3.28,1.67-4.35,3.9-4.62,7.44-.9,12.14-2.24,24.27-7.46,35.49-5.82,12.5-13.95,15.42-27,10.78-10.35-3.69-17.63-11.13-24.76-18.87-1.73-1.88-3.26-3-6-2.08-6.17,2-12.65,1.71-18.82.66-5-.85-4.82.8-4,4.49,1.77,8,1.74,15.88-1.48,23.55-1.07,2.55,0,3.88,2.19,5.19,12.62,7.39,20.63,18.58,25.89,32,2.83,7.2,2,13.91-2.19,20.45a77.56,77.56,0,0,1-23.85,23.79c-3.29,2.08-4.49,3.45-.78,6.29a37.85,37.85,0,0,1,9.24,11.08c1.73,2.94,3.71,4.05,7.27,3.76,8.14-.66,16.3-.52,24.33,1.5,12.11,3,16.63,8.17,17.61,20.52.26,3.3,1.48,3.87,4,2,3.49-2.57,7-5.12,10.33-7.87a141.54,141.54,0,0,0,22.23-22.88c.68-.88,1.78-1.85,1.12-3.09s-2.07-.58-3.17-.57c-5.83.05-11.66.14-17.49.15-8.17,0-16.34.16-24.5-.13a8.69,8.69,0,0,1-8.66-9.11c.16-4.86,3.35-7.65,9.08-7.74,5.16-.08,10.33,0,15.49,0h22.1c-1-3.41-3.34-4.89-5.16-6.73-10.43-10.53-21-21-31.38-31.51-3.64-3.68-3.9-7.58-1-11.12,3.55-4.37,9-4.25,13.43.18q16.54,16.68,33.17,33.29c.88.89,1.74,2.45,3.22,1.83s.86-2.34,1-3.6,0-2.34,0-3.5V122.31c0-3.06.19-6.08,3-8.07,2.6-1.84,5.34-2.51,8.46-1.09,3.48,1.6,4.81,4.23,4.8,8q-.08,27.75,0,55.49c0,1.44-.64,3.42.81,4.18,1.94,1,2.86-1.18,3.94-2.25q16.13-16,32.12-32.21c4.74-4.8,9.47-5.4,13.48-1.46,3.56,3.51,3.15,8.11-1.32,12.62-10.8,10.88-21.67,21.68-32.47,32.55C174.18,191.27,172.44,192.2,172.17,194.28Z"/></g></g></svg>