<svg xmlns="http://www.w3.org/2000/svg" viewBox="0 0 301.38 301.41"><g id="Calque_2" data-name="Calque 2"><g id="Calque_1-2" data-name="Calque 1"><path d="M211.58,150.79c-.87,34.29-27.2,60.73-60.93,60.62-34.18-.11-60.83-26.66-60.63-60.72.2-34.53,26.16-60.52,60.7-60.62C185.55,90,210.58,117.19,211.58,150.79Zm-61,44c24.93,0,44.09-19,44.12-43.87s-19.12-44.23-43.8-44.26c-25.23,0-44.34,19-44.33,44.2C106.64,175.7,125.74,194.77,150.63,194.77Z"/><path d="M100.56,209.37c.17,2.42-1.14,4.1-2.72,5.67-13.78,13.79-27.53,27.62-41.38,41.35-4,4-8.5,4.14-12,.87s-3.27-8.47.69-12.47q20.06-20.23,40.32-40.27c2.65-2.63,5.81-5,9.8-3.06A9,9,0,0,1,100.56,209.37Z"/><path d="M50.46,42a7.89,7.89,0,0,1,5.7,2.73c13.68,13.65,27.4,27.25,41,41,4.13,4.19,4.44,7.88,1.55,11.57-2.59,3.29-5.89,4.39-9.68,2.17a26,26,0,0,1-5-4Q65,76.61,46.12,57.66a12,12,0,0,1-3.57-5.3C41,46.53,44.45,41.91,50.46,42Z"/><path d="M252,259.46a10.75,10.75,0,0,1-7.51-3.38c-13.4-13.43-26.86-26.81-40.22-40.28-4.46-4.5-4.68-8.44-1.05-12.19s7.61-4,12.18.5c13.9,13.64,27.62,27.46,41.34,41.29,2.72,2.75,3.05,6.19,1.57,9.73C257.09,258.11,254.48,259,252,259.46Z"/><path d="M208.89,100.57c-5.59,0-9.71-6.4-7.11-11.34a20.18,20.18,0,0,1,3.62-4.72Q224.57,65.22,243.85,46c.36-.36.7-.72,1.07-1.05,3.85-3.42,9.07-3.68,12.19-.61s3,8.28-.75,12.08c-9.55,9.74-19.24,19.34-28.88,29l-12,12C213.64,99.24,211.59,100.57,208.89,100.57Z"/><path d="M142.66,37.7c0-9.32-.06-18.64,0-28,.06-6.47,3-9.9,8.13-9.73,4.9.16,7.86,3.61,7.88,9.57q.09,28.47,0,56.92c0,6.09-3.4,10-8.18,9.91-4.62-.13-7.78-3.94-7.83-9.75C142.6,57,142.66,47.35,142.66,37.7Z"/><path d="M38.05,158.74c-9.47,0-18.94.06-28.42,0C3.39,158.66.11,155.92,0,151c-.1-4.6,4.12-8.28,9.84-8.3q28.41-.07,56.84,0c5.77,0,9.6,3.26,9.71,7.85.12,4.74-3.88,8.12-9.92,8.16C57,158.79,47.53,158.74,38.05,158.74Z"/><path d="M142.65,262.66c0-9.31-.05-18.62,0-27.92.05-5.92,3.1-9.43,8-9.48s8,3.4,8,9.44q.15,28.92,0,57.84c0,5.73-3.06,8.86-7.95,8.87s-7.92-3.15-8-8.83c-.13-10,0-19.94,0-29.92Z"/><path d="M262.68,158.74c-9.33,0-18.66.06-28,0-6.05-.06-9.53-2.95-9.7-7.79s3.83-8.21,9.86-8.23q28.25-.07,56.49,0c6.17,0,10.1,3.28,10,8-.05,4.5-4.37,7.95-10.2,8C281.68,158.79,272.18,158.75,262.68,158.74Z"/></g></g></svg>