<svg xmlns="http://www.w3.org/2000/svg" viewBox="0 0 372.31 512"><g id="Calque_2" data-name="Calque 2"><g id="Calque_1-2" data-name="Calque 1"><path d="M372.31,186.15C372.31,83.51,288.8,0,186.15,0S0,83.51,0,186.15c0,97.26,75,177.32,170.15,185.46v46.67H128a16,16,0,1,0,0,32h42.12V496a16,16,0,0,0,32,0V450.28h42.13a16,16,0,0,0,0-32H202.15V371.61c95.19-8.14,170.16-88.2,170.16-185.46ZM32,186.15C32,101.15,101.15,32,186.15,32s154.16,69.15,154.16,154.15S271.16,340.31,186.15,340.31,32,271.16,32,186.15Z"/></g></g></svg>