<svg xmlns="http://www.w3.org/2000/svg" xml:space="preserve" viewBox="0 0 682.667 682.667"><defs><clipPath id="a" clipPathUnits="userSpaceOnUse"><path d="M0 512h512V0H0Z" data-original="#000000"/></clipPath></defs><g fill="none" stroke="#000" stroke-linecap="round" stroke-linejoin="round" stroke-miterlimit="10" stroke-width="40" clip-path="url(#a)" transform="matrix(1.33333 0 0 -1.33333 0 682.667)"><path d="M130 20v150M180 71H80M380.501 242c4.842 12.397 7.499 25.888 7.499 40 0 60.751-49.249 110-110 110s-110-49.249-110-110 49.249-110 110-110c12.981 0 25.438 2.249 37 6.377M478 480 362 364M492 407v55c0 16.568-13.432 30-30 30h-55" data-original="#000000"/><path d="M20 282c0 60.751 49.249 110 110 110s110-49.249 110-110-49.249-110-110-110S20 221.249 20 282Z" data-original="#000000"/></g></svg>