<svg xmlns="http://www.w3.org/2000/svg" viewBox="0 0 261.91 299.6"><g id="Calque_2" data-name="Calque 2"><g id="Calque_1-2" data-name="Calque 1"><path d="M138,201.93c0,10.84.1,21.67-.05,32.5-.07,4.12,1.36,6.89,5,8.92,8.59,4.77,17,9.79,25.54,14.73a18.78,18.78,0,0,1,3.33,2.19c2.95,2.7,5.49,5.68,2.92,10-2.28,3.79-7.17,4.69-11.48,2.24q-10-5.67-19.89-11.45c-4.16-2.41-5.27-1.94-5.34,2.87-.13,8.83,0,17.66-.06,26.5,0,5.48-2.48,8.93-6.4,9.19-4.8.33-7.67-2.52-8.36-8.51-1-8.68.88-17.28.66-25.94,0-1.89.86-4.42-1.31-5.46-2-.94-3.76.93-5.43,1.87-6.38,3.58-12.59,7.47-19,11-4.5,2.47-8.81,1.43-11-2.18s-1.39-7.11,3.31-10.08c8.57-5.42,17.28-10.63,26.21-15.42,4.89-2.62,6.69-5.79,6.62-11.47-.24-21.81-.8-43.63.37-65.44.07-1.17.39-2.48-.71-3.23-1.5-1-2.91,0-4.17.73q-15.15,8.69-30.27,17.46c-8.63,5-17.09,10.32-25.93,14.92-4.73,2.46-7,5.3-6.73,10.82.42,9.15.12,18.33.12,27.49,0,8-2.39,11.67-7.6,11.62S41,244.16,41,235.89c0-6.67.06-13.34,0-20-.06-4.95-.82-5.24-5.18-2.66q-12,7.1-24.17,14c-4.08,2.34-7.78,1.34-10.3-2.61s-1-7.13,2.31-9.51c6.48-4.71,13.61-8.36,20.57-12.29,2.55-1.44,6.46-2.47,6.71-5.33.3-3.41-4-3.88-6.47-5.38-5.25-3.22-10.8-5.94-16-9.2-5-3.1-6.27-7.27-3.88-10.81s7.71-4.41,12.1-1.84c9.62,5.61,19.29,11.15,28.87,16.86a5.46,5.46,0,0,0,6.45-.09C69.09,176.2,87,166.59,104.58,156.46c1.72-1,3.31-2.22,5-3.32,4.92-3.24,5-4.19-.24-7.26-15.23-8.89-30.58-17.6-45.88-26.39-3-1.74-6.35-3.12-9-5.33-4.43-3.7-8.2-2.64-12.56.11-8.17,5.14-16.58,9.92-24.92,14.78-4.65,2.71-9.35,2.31-11.84-.84C2,124.22,3.05,120,8,117c6.71-4,13.49-7.89,20.15-12,4.26-2.6,4.16-3.18-.31-5.82C20.41,94.8,12.94,90.43,5.52,86,.24,82.81-1.28,78.9,1.07,74.92s6.8-4.66,11.8-1.81c7.52,4.28,15,8.64,22.49,13,5.11,3,5.58,2.69,5.61-3.44,0-7.33,0-14.67,0-22,.07-5.61,2.8-8.78,7.35-8.82s7.43,3.14,7.51,8.74c.14,10.5.2,21,0,31.5-.08,4,1.28,6.57,4.71,8.53q25.37,14.46,50.63,29.1c2.88,1.66,5.77,3.32,8.61,5.06,2.66,1.62,4.17,1.16,3.91-2.18-1.51-19.13-.28-38.3-.68-57.45a13.23,13.23,0,0,1,0-4c3.48-11.35-3.9-15.54-12.26-19.72A207.09,207.09,0,0,1,90.27,39.21c-4.59-3-5.35-6.59-3.06-10.15,2.17-3.39,6.31-4.53,10.64-2.19,6.59,3.56,12.9,7.61,19.38,11.37,1.62.94,3.16,3,5.33,1.6,1.89-1.25.68-3.33.77-5.08.46-9.29-1.26-18.61.46-27.88.75-4.07,2.47-7,7-6.88C135,.08,137.9,3.35,138,8.05c.1,9,0,18,0,27,0,5.79.83,6.29,6,3.42,6.69-3.73,13.14-7.88,19.89-11.49,5.87-3.14,11.6-.25,11.87,5.64.18,3.78-2.46,5.72-5.17,7.36C162.47,44.9,154.43,50,146,54.37c-5.86,3.05-8.34,6.89-8.19,13.73.43,20.49.14,41,.19,61.49,0,1.91-.71,4.31,1.41,5.48s3.76-.59,5.44-1.59c18.71-11.16,37.33-22.48,56.59-32.69A7.73,7.73,0,0,0,206,93.18c-.08-10.5,0-21,0-31.5,0-6.41,2.58-9.78,7.33-9.87s7.43,3.24,7.57,9.77c.16,7.33,0,14.67.08,22,0,4.89.57,5.14,4.69,2.79q12.14-6.95,24.28-13.87c4-2.28,8.74-1.22,10.91,2.4s1,7.42-3.33,10c-7.7,4.65-15.5,9.13-23.22,13.74-1.52.9-3.7,1.56-3.65,3.7.06,1.86,2.07,2.42,3.48,3.23,6.64,3.83,13.25,7.68,19.92,11.43,3.89,2.19,4.65,5.6,3.52,9.42s-4.44,4.56-8.05,4.23c-2.77-.26-5-1.75-7.28-3.12-8.44-5-17-9.89-25.37-15-2.46-1.49-4.36-1.4-6.86.05-19.15,11.09-38.38,22-57.59,33-1.73,1-3.78,2-3.88,4.22-.1,2.43,2.27,3.09,3.93,4.05q28.93,16.73,57.9,33.39a5.34,5.34,0,0,0,6-.13q13.06-7.84,26.26-15.45a24.52,24.52,0,0,1,5.44-2.43c3.81-1.09,7.42-.89,9.35,3.32A8.19,8.19,0,0,1,253.78,183c-6,3.5-12.2,6.81-18.33,10.15-1.91,1-4.45,1.87-4.58,4.17s2.51,3.25,4.34,4.31c7.21,4.15,14.47,8.23,21.69,12.38,4.88,2.8,6.19,6.65,3.75,10.79-2.12,3.61-6.41,4.42-10.85,2-8.3-4.58-16.68-9-24.83-13.87-3.44-2-4-.78-4,2.33,0,8.33,0,16.66-.14,25-.06,3.65-1.71,6.48-5.55,7.34s-6.51-.69-8.44-3.87c-1-1.65-.84-3.53-.84-5.36,0-10-.24-20,.09-30,.16-4.83-1.65-7.7-5.72-10-16.23-9.17-32.33-18.55-48.49-27.84-3-1.74-6.13-3.34-9.15-5.11-3.68-2.16-4.73-.51-4.72,3.06,0,11.16,0,22.33,0,33.49Z"/></g></g></svg>