<svg xmlns="http://www.w3.org/2000/svg" viewBox="0 0 1200 1204"><g id="Calque_2" data-name="Calque 2"><g id="Calque_1-2" data-name="Calque 1"><g id="_0RLz79" data-name="0RLz79"><path d="M1146,1204H54c-16.14-3.94-29.95-11.6-40.45-24.81C6.66,1170.52,2.89,1160.48,0,1150V168a18.15,18.15,0,0,0,.56-1.91c6-31.47,33.92-58.45,74.93-57.31,28.63.79,57.3.08,85.94.22,4.75,0,6.48-1.58,6.39-6.39-.23-13-.21-26,0-39a63.83,63.83,0,0,1,10.54-34.4c10.38-16,25.44-25,43.67-29.24h22c1.12.32,2.23.67,3.36,1,30,7.45,49.12,30.47,51.1,61.42.86,13.31.2,26.65.44,40,.1,5.92.69,6.49,6.71,6.58,1.83,0,3.66,0,5.5,0H710q91.72,0,183.45,0c7.26,0,7.62-.37,7.64-7.64,0-11.33-.05-22.66,0-34,.13-16,4.4-30.58,14.5-43.22C926.06,11,939.91,3.61,956,0h22c1.27.39,2.53.81,3.82,1.15,31.16,8.3,50.39,33.27,50.41,65.49,0,11.66,0,23.31,0,35,0,7.06.24,7.31,7.3,7.31q44,0,87.91,0c19.44,0,36.63,5.92,51,19.31,11.67,10.84,18.13,24.45,21.53,39.75v982c-3,10.43-6.65,20.53-13.57,29.17C1175.9,1192.31,1162.18,1200.12,1146,1204ZM600.45,356.27H46c-7.61,0-7.69.05-7.69,6.83q0,385.95,0,771.92c0,19.6,11.19,30.66,30.79,30.68q46.74,0,93.49,0,483.19,0,966.4.2c20.94,0,33.48-13,32.88-33-.74-24.14-.18-48.32-.18-72.49V364.51c0-8.22,0-8.22-8.31-8.24H600.45Zm-1-39.21h550c2,0,4-.14,6,0,4.78.41,6.42-1.67,6.36-6.43-.2-16.82-.08-33.66-.08-50.49,0-26.5.12-53,0-79.49-.12-19.27-13.33-32.39-32.48-32.46-30.16-.1-60.32-.06-90.49-.05-6.07,0-6.41.39-6.44,6.64,0,13.66.3,27.34-.14,41C1031,229.71,1002,257.28,967.16,258c-33.28.63-63.06-26.67-65.52-59.93-1-13.82-.34-27.65-.54-41.47-.12-8.31-.08-8.37-8.4-8.37H307.26c-8.27,0-8.27.1-8.39,8.39-.19,13.49.51,27-.49,40.47-2.56,34.74-32.33,62-66.6,60.87-35.66-1.15-63.77-29.71-64-65.11-.09-12.5,0-25,0-37.5,0-6.92-.18-7.11-7-7.12H70.28a31.65,31.65,0,0,0-7.93.75c-14.51,3.69-24,15.68-24,31.16-.11,42.16,0,84.32-.06,126.49,0,10.47,0,10.47,10.72,10.47ZM993.05,128.75H993c0-21.83.31-43.66-.11-65.48-.26-14.09-12.14-24.85-26.22-24.87-13.64,0-26.13,11.36-26.22,25.11q-.44,64.72,0,129.45a25.92,25.92,0,0,0,18.13,24.5c16.87,5.6,34.1-6.5,34.43-24.74C993.34,171.4,993.05,150.07,993.05,128.75ZM207,128.7H207c0,21.82-.5,43.65.15,65.45.59,19.57,22.32,30.88,39.21,21,9.35-5.49,13.31-14,13.31-24.66q0-49.47,0-98.94c0-9.16.3-18.34-.15-27.48-1-20.5-22.52-32.14-40-21.71-8.35,5-12.62,12.58-12.63,22.4Q206.93,96.72,207,128.7Z"/><path d="M422.7,1001.14c1.82-8.52,4.13-19.42,6.5-30.31,9.43-43.46,18.78-86.94,28.43-130.35,1.28-5.74.32-9.53-4.17-13.5q-58-51.32-115.73-103c-2.48-2.22-5-4.38-7.34-6.78-5.14-5.36-6.88-11.78-4.81-18.9,2.11-7.28,6.9-12.44,14.52-13.54,11.69-1.7,23.47-2.74,35.23-3.94q37-3.78,74.06-7.43c18.88-1.89,37.76-3.92,56.66-5.6,4.88-.43,7.65-2.25,9.69-6.9q32.7-74.89,65.77-149.61c3.57-8.12,9.5-12.9,18.46-12.85,8.67.05,14.72,4.49,18.23,12.46,21.72,49.41,43.57,98.77,65.09,148.27,2.5,5.77,5.55,8.24,12,8.82,31.51,2.81,63,6.28,94.43,9.46q32.06,3.24,64.13,6.3c6.51.62,12.48,2.11,16.83,7.48,6.79,8.39,5.95,19.51-2.66,27.35-16.76,15.24-33.76,30.23-50.66,45.32-23.86,21.3-47.67,42.66-71.64,63.84-3.67,3.24-4.86,6.34-3.77,11.29q17,77.09,33.62,154.28c.57,2.6,1.22,5.2,1.53,7.84.92,7.92-1.53,14.51-8.24,19.12-6.91,4.75-14.16,4.58-21.22.53-18.92-10.89-37.74-21.94-56.59-32.93-28.64-16.71-57.3-33.36-85.86-50.21-3.8-2.25-6.72-2.21-10.52,0q-68.55,40.19-137.26,80.12c-2,1.17-4,2.39-6.07,3.47C437.63,1028.37,422.47,1019,422.7,1001.14Zm47.84-36.3c2.77-1.53,4.35-2.36,5.89-3.26q55.71-32.48,111.38-65c8.12-4.77,15.76-5,24-.13q54.51,32,109.24,63.73c2.37,1.38,4.56,3.22,7.4,3.83.76-2,.07-3.57-.28-5.17C719,916.67,710,874.49,700.66,832.36c-2-9.23,0-16.61,7.14-22.91q40.56-36,80.93-72.22c6.63-5.92,13.19-11.91,20.66-18.66-13.53-1.38-25.75-2.64-38-3.87-31.15-3.15-62.27-6.65-93.47-9.25-12-1-19.55-5.72-24.38-17-16.6-38.75-33.81-77.23-50.84-115.78-.68-1.55-.69-4.21-3-4.06-1.71.12-2,2.47-2.61,4-17,38.58-34.19,77.06-50.78,115.81-4.73,11-12,16.33-23.89,17s-23.86,2.26-35.79,3.47c-24.69,2.48-49.39,4.9-74.06,7.51-7,.74-14.06.67-21.48,2.72,1.47,1.39,2.39,2.32,3.37,3.19q48.62,43.47,97.29,86.91c7,6.25,9.62,13.45,7.56,22.77-8,36.11-15.74,72.27-23.57,108.41C474.11,948.06,472.47,955.82,470.54,964.84Z"/></g></g></g></svg>