<svg xmlns="http://www.w3.org/2000/svg" viewBox="0 0 118.81 122.66"><g id="Calque_2" data-name="Calque 2"><g id="Calque_1-2" data-name="Calque 1"><path d="M55.21,122.66C28.48,122.55,5,102.74.77,76.68c-4.45-27.22,10.77-53.19,36.4-62.13.63-.22,1.24-.52,1.88-.68,1.78-.43,3.67-1.08,5,.77s.17,3.46-.91,5a40.43,40.43,0,0,0-7.79,19.7C33.48,57.23,40,71.46,55.14,81s30.47,9,45.77,0c2.19-1.28,4.13-5,7.26-2.27,2.83,2.43.41,5.32-.51,7.78A55.4,55.4,0,0,1,55.21,122.66ZM33.31,23.49c-17.89,7-29.52,29.69-26.57,51.08,3.09,22.36,21.9,39.61,45.66,41.87,18.6,1.78,41.33-11.3,46.51-26.88C77.37,97.67,57.69,95.09,41.76,77.9,27.21,62.19,25.31,43.71,33.31,23.49Z"/><path d="M78.47,36.58C76.73,25.82,70.69,20.2,60.23,18.34,70.6,16.37,76.77,10.78,78.5,0,80.31,10.61,86,16.62,96.75,18.16,86.41,20.2,80.17,25.82,78.47,36.58Z"/><path d="M105.35,35.63c1.52,7.78,6,11.88,13.46,13.42-7.74,1.43-12,5.92-13.47,13.48C103.79,55,99.76,50.5,92,49.19,99.19,47.22,104.25,43.57,105.35,35.63Z"/></g></g></svg>