<svg xmlns="http://www.w3.org/2000/svg" viewBox="0 0 141.28 141.2"><g id="Calque_2" data-name="Calque 2"><g id="Calque_1-2" data-name="Calque 1"><path d="M70.72,30.21a40.42,40.42,0,0,1-.1,80.83C48.5,111,30.15,92.56,30.24,70.52A40.56,40.56,0,0,1,70.72,30.21ZM70,104.64A34.18,34.18,0,0,0,104.86,71c.29-18.52-14.76-34.08-33.51-34.64S37,51.08,36.55,70.12C36.14,88.71,51.18,104.23,70,104.64Z"/><path d="M96.7,29c-2.87-.87-3.91-2.63-2.64-5,2.42-4.54,5.09-9,7.74-13.36a2.88,2.88,0,0,1,4.28-1.16,2.67,2.67,0,0,1,1.11,3.85c-2.7,4.76-5.4,9.54-8.24,14.22C98.51,28.27,97.37,28.58,96.7,29Z"/><path d="M28.75,45.6c-.56,1.83-2.16,2.94-4.64,1.59-4.52-2.47-9-5.08-13.39-7.73-1.58-1-2.38-2.46-1.23-4.23.89-1.39,2.29-2,3.87-1.16q7.17,4,14.25,8.22C28.47,42.8,29,43.71,28.75,45.6Z"/><path d="M37.15,132.26c-3.08-.41-4.07-2.28-2.88-4.61,2.42-4.74,5.19-9.3,7.95-13.85a2.71,2.71,0,0,1,3.88-1.13c1.2.7,2.33,1.91,1.66,3.28a103.63,103.63,0,0,1-9,15.48C38.4,131.89,37.61,132,37.15,132.26Z"/><path d="M107.57,129.23a3.26,3.26,0,0,1-1.91,2.72,2.63,2.63,0,0,1-3.53-1q-4.22-7.05-8.24-14.23a2.79,2.79,0,0,1,.69-3.62,2.7,2.7,0,0,1,3.22-.51C99.12,113.24,107.65,127.75,107.57,129.23Z"/><path d="M47.89,25.7a3.14,3.14,0,0,1-2.28,3,2.81,2.81,0,0,1-3.43-1.35q-4.12-6.82-8-13.81a2.89,2.89,0,0,1,.55-3.67,3,3,0,0,1,3.7-.38C39.53,10,47.91,24.51,47.89,25.7Z"/><path d="M132.22,104.61c-.34,2.17-1.86,3.5-3.81,2.52-5-2.52-9.9-5.39-14.72-8.31a2.66,2.66,0,0,1-.73-4c.94-1.44,2.29-2,3.84-1.17,4.77,2.69,9.49,5.47,14.21,8.24A2.94,2.94,0,0,1,132.22,104.61Z"/><path d="M26,93.36a3.1,3.1,0,0,1,2.67,2,2.64,2.64,0,0,1-1,3.53c-4.7,2.83-9.45,5.59-14.26,8.21a2.82,2.82,0,0,1-3.63-.71,2.77,2.77,0,0,1-.43-3.24C10,101.81,24.56,93.27,26,93.36Z"/><path d="M130.91,67.43c2.49,0,5-.12,7.47,0a2.91,2.91,0,0,1,2.89,3.36,2.76,2.76,0,0,1-3,2.74c-5.31.05-10.63,0-15.94,0a2.79,2.79,0,0,1-2.95-2.78,3,3,0,0,1,3-3.28C125.25,67.29,128.08,67.42,130.91,67.43Z"/><path d="M10.72,73.64c-2.5,0-5,.09-7.48,0C1.4,73.53,0,72.63,0,70.57a3,3,0,0,1,3.24-3.1c5.15-.15,10.31-.14,15.46,0a3,3,0,0,1,3.24,3.11c0,2.07-1.41,3-3.24,3C16,73.72,13.38,73.63,10.72,73.64Z"/><path d="M115.93,47.82c-1.68-.22-2.81-.76-3.3-2.22a2.72,2.72,0,0,1,1.28-3.42c4.55-2.73,9.14-5.39,13.75-8a2.86,2.86,0,0,1,4,.79c.88,1.16,1,2.84-.09,3.67A113.5,113.5,0,0,1,115.93,47.82Z"/><path d="M73.82,11.12c0,2.49.09,5,0,7.46a3.13,3.13,0,0,1-3.06,3.3c-2,.07-3-1.34-3-3.21q-.1-7.71,0-15.42c0-1.85.86-3.24,3-3.25s3,1.35,3.11,3.17C73.92,5.81,73.81,8.47,73.82,11.12Z"/><path d="M67.69,130c0-2.49-.08-5,0-7.46.08-1.85,1-3.25,3-3.17a3,3,0,0,1,3,3.27c.09,5.14.11,10.29,0,15.43a3,3,0,0,1-3.15,3.17c-2.14,0-2.87-1.45-2.92-3.27C67.63,135.27,67.69,132.62,67.69,130Z"/></g></g></svg>