<svg xmlns="http://www.w3.org/2000/svg" xml:space="preserve" viewBox="0 0 512 512"><g fill="none" stroke="#000" stroke-linecap="round" stroke-linejoin="round" stroke-miterlimit="10" stroke-width="40"><path d="M448.098 64.471 458.208 70l-10.109 5.529a86.438 86.438 0 0 0-34.361 34.361l-5.53 10.11-5.529-10.109a86.438 86.438 0 0 0-34.361-34.361L358.208 70l10.109-5.529a86.438 86.438 0 0 0 34.361-34.361l5.53-10.11 5.529 10.109a86.44 86.44 0 0 0 34.361 34.362zM172.952 20h68.511a27.777 27.777 0 0 1 23.082 12.327l19.185 28.662c7.39 11.041 5.931 25.77-3.482 35.146l-44.033 54.121H178.2l-44.033-54.121c-9.413-9.375-10.872-24.105-3.482-35.146l19.185-28.662A27.778 27.778 0 0 1 172.952 20zM58.633 277.979h297.149" data-original="#000000"/><path d="M360.623 332.362V210.255c0-33.137-26.863-60-60-60h-186.83c-33.137 0-60 26.863-60 60V432c0 33.137 26.863 60 60 60h186.83c33.016 0 59.804-26.668 59.999-59.638M207.208 156.106v118.468" data-original="#000000"/></g></svg>