<svg xmlns="http://www.w3.org/2000/svg" viewBox="0 0 291.02 282.99"><g id="Calque_2" data-name="Calque 2"><g id="Calque_1-2" data-name="Calque 1"><path d="M60.69,62c6-.41,12.43.81,18.63,2.85,3.65,1.2,5.1.52,5.34-3.56.78-13,3.66-25.31,11.64-36.06,22-29.59,63.53-33.94,90.62-8.92C199.46,27.9,205.35,42.93,206.33,60c.35,6.14.62,6.12,6.42,4.5,35.75-10,70.89,11.28,77.26,46.72,5.53,30.76-12.1,59.93-42.16,69.39-4.14,1.3-3.63,2.61-1.48,5.38,26.68,34.42,7.49,86.64-35.05,95.39-26,5.35-46.86-3.11-62.81-24-2.61-3.42-3.79-2.91-6.13.17C128.46,276,109.85,285,86.81,282.6,62,280,44.67,266.07,36.09,243c-7.49-20.14-4.52-39.76,8.69-57.21,2.41-3.18,1.78-4.31-1.81-5.42-24.85-7.65-40.46-28.22-42.75-54C-2.86,91.69,27,61,60.69,62ZM145.23,194.1c25,0,43.82-18.95,44.46-43.57.63-24.23-20.77-44.63-43.46-44.81-25.61-.21-45.4,21.83-44.95,43.82C101.81,174.88,120.23,194.06,145.23,194.1Zm-128.89-67c.35,13.74,8.86,26.73,24.54,35,12.08,6.39,24.57,6,37.21,1.28,7.61-2.83,7.66-2.61,6.73-10.54a25.11,25.11,0,0,1-.09-5C86,133,90.59,119.59,101.25,108.72c1.68-1.7,2-3.26.49-5.25-3.64-5-7-10.27-11.77-14.17-14.48-11.92-30.84-15.12-48-7C25.2,90.16,16.38,103.92,16.34,127.11ZM274.55,122a43.79,43.79,0,0,0-53.12-42.94c-13.16,2.78-22.49,10.59-30,21.51-3,4.34-3.26,6.58.47,10.72,9.83,10.94,14.11,24.4,14.4,39,.21,10.89-.08,10.9,10.15,14.22C245.78,174,274.68,152.91,274.55,122ZM137.42,220c0-1.83-.08-3.66,0-5.49.17-3-1.3-4.5-4.21-5.12-17.75-3.81-31.09-13.76-40.35-29.28-1.5-2.51-3.33-3.13-6.25-2.45-21.15,4.9-34.44,18.72-37.56,40.19-3.82,26.34,19.26,51.09,47,48.66C121.53,264.33,137.46,245.58,137.42,220Zm16.11-.87c-1,30.6,25.22,51.43,52,47,21.47-3.58,39.25-25.46,36.71-46.56-2.66-22.18-16.77-37.46-38.64-42-2.63-.55-4.15.4-5.37,2.43-9.42,15.6-22.77,25.78-40.76,29.54-2.69.56-4.08,2-3.95,4.8C153.6,216.14,153.53,218,153.53,219.17Zm36-157.28c0-31.36-28.61-52.45-57.8-43.4C114.52,23.83,102,41.09,101.28,59c-.59,13.69,5.69,24.27,13,34.73,2,2.79,4.26,1.93,6.62.92,16.47-7,32.91-7.28,49.29.24,2.52,1.16,4.53.85,6.16-1.33C183.64,83.87,190.52,74,189.56,61.89Z"/></g></g></svg>