<svg xmlns="http://www.w3.org/2000/svg" xml:space="preserve" viewBox="0 0 682.667 682.667"><defs><clipPath id="a" clipPathUnits="userSpaceOnUse"><path d="M0 512h512V0H0Z" data-original="#000000"/></clipPath></defs><g clip-path="url(#a)" transform="matrix(1.33333 0 0 -1.33333 0 682.667)"><path d="M262 411c0-11.046 8.954-20 20-20s20 8.954 20 20-8.954 20-20 20-20-8.954-20-20M472.83 328.32c3.14-10.59 14.27-16.63 24.859-13.49 10.591 3.139 16.631 14.269 13.492 24.859-3.14 10.591-14.27 16.631-24.861 13.491-10.59-3.139-16.63-14.269-13.49-24.86M416 457c0-11.046 8.954-20 20-20s20 8.954 20 20-8.954 20-20 20-20-8.954-20-20" data-original="#000000"/><path fill="none" stroke="#000" stroke-linecap="round" stroke-miterlimit="10" stroke-width="40" d="M379 51c29.057 14.762 55.163 37.723 78.001 69.771 14.819 20.684 26.443 43.811 34.15 68.661 5.281 17.022-15.278 30.043-28.623 18.221-10.34-9.16-22.296-18.3-35.528-26.656a275.103 275.103 0 0 0-11.725-7.003M141 20H20" data-original="#000000"/><path fill="none" stroke="#000" stroke-linecap="round" stroke-linejoin="round" stroke-miterlimit="10" stroke-width="40" d="M35 179c-10.183 27.343-15.521 55.389-14.96 86.293 1.934 106.481 73.009 196.084 170.249 225.854 17.488 5.355 30.896-15.724 18.69-29.339-31.677-35.335-63.75-89.754-63.978-146.808-.041-10.447.966-20.983 3.212-31.507 8.477-39.716 30.571-74.597 61.088-99.493" data-original="#000000"/><path fill="none" stroke="#000" stroke-linecap="round" stroke-linejoin="round" stroke-miterlimit="10" stroke-width="40" d="M256.93 258c9.079 12.517 23.464 21 40.109 21 27.592 0 49.96-22.368 49.96-49.96 0-27.593-22.368-50.04-49.96-50.04H19.999M231 37c7.264-10.013 18.716-17 32.031-17C285.105 20 303 37.895 303 59.969 303 82.042 285.105 100 263.031 100H20" data-original="#000000"/></g></svg>