<svg xmlns="http://www.w3.org/2000/svg" viewBox="0 0 170.55 176.69"><g id="Calque_2" data-name="Calque 2"><g id="Calque_1-2" data-name="Calque 1"><path d="M110,134.21c1.93.12,3.66.16,5.38.36,3.1.36,4.9,2.85,4.67,6.33s-2.11,5.47-5.3,5.52c-1.78,0-3.56,0-5.58,0,.83,1.67,2.11,2.35,3.21,3.2,2.17,1.66,2,3.33-.35,4.55-5.59,2.85-8,2.55-12.66-1.59a33.15,33.15,0,0,1-4.53-5.22c-.77-1-4.13-1.36-4.73-.5s0,4.07.91,4.77a31.05,31.05,0,0,1,6.38,6,9.67,9.67,0,0,1-.48,12.1c-1.08,1.18-2.56,1.05-3.64-.4a12.46,12.46,0,0,0-3.35-3.58c0,1.89,0,3.55,0,5.2-.06,3.49-2.26,5.65-5.79,5.74-3.71.1-6.09-1.89-6.34-5.39-.1-1.53,0-3.08,0-4.82-1.18.43-1.52,1.28-2,1.91-1.3,1.52-2.63,1.55-3.91.06-4.2-4.88-3.56-9.67,1.7-13.3,2.3-1.59,4.42-3.36,4.22-6.57,0-.75.38-1.87-.73-2.05s-2.47-.56-3.39.8a28.58,28.58,0,0,1-6.19,6.7,9.54,9.54,0,0,1-12.06-.51c-1.2-1.11-1.06-2.49.37-3.64,1-.83,2-1.65,3-2.49a3.45,3.45,0,0,0,.46-.74,21.92,21.92,0,0,0-5.08-.21c-3.35-.07-5.47-1.91-5.63-5-.23-4.46,1.31-6.57,5.14-6.94,1.6-.16,3.21-.19,5-.29-.39-1.08-1.33-1.4-2-2a2.23,2.23,0,0,1-.57-3.29,8.26,8.26,0,0,1,12.25-1,38.29,38.29,0,0,1,2.32,3.16c1.34,1.7,2.86,3.12,5.22,3.22,1.33.06,1.94-.36,1.91-1.79a6.19,6.19,0,0,0-2.5-4.62c-1-.86-2.13-1.52-3.13-2.36-4.76-4-3.49-9.29.37-13,1-1,2.22-.48,3.1.56a5.91,5.91,0,0,0,2.15,2.13c0-1.59,0-2.94,0-4.28.11-3.92,2.35-6,6.33-6,3.66,0,5.8,2.26,5.83,6,0,1.24,0,2.49,0,3.74,0,.86.41,1.05,1,.4.79-.87,1.52-1.81,2.24-2.74,1.46-1.86,3.13-1.75,4.26.31,3,5.5,2.59,8.74-1.76,13.29a23.93,23.93,0,0,1-4.41,3.75,2.93,2.93,0,0,0-1.35,3c0,1,.42,1.46,1.44,1.51a6.42,6.42,0,0,0,5.14-1.75,18,18,0,0,0,2.44-3.06c3.37-5.12,8.94-5,13.38-.64,1.08,1,.79,2.28-.32,3.26C111.35,132.73,110.48,133.06,110,134.21Zm-48.71,17a3.29,3.29,0,0,0,3.38-.63,24.69,24.69,0,0,0,5.92-6.68,3.09,3.09,0,0,1,2.64-1.81c2.18,0,4.37,0,6.55,0a2.25,2.25,0,0,1,2.43,2.12c.53,4.82.14,9.39-3.93,12.8-1,.8-2,1.53-3,2.25a4,4,0,0,0-1.76,2.34c-.12.47-.2,1,.29,1.37s.8-.2,1.11-.44a15.3,15.3,0,0,1,3-2c2.81-1.32,4.37-.41,4.43,2.66,0,2.36,0,4.74,0,7.11,0,1.12.35,1.77,1.6,1.74s1.64-.62,1.62-1.77c0-2.43,0-4.86,0-7.3,0-3.31,1.29-4.09,4.36-2.7a26.41,26.41,0,0,1,4.72,3.33,2.8,2.8,0,0,0-.56-3.09,23.18,23.18,0,0,0-6.8-6.06,3.11,3.11,0,0,1-1.74-3c.07-2.18,0-4.36,0-6.54,0-2,.76-2.79,2.65-2.84s4,.06,6,0a3.76,3.76,0,0,1,3.84,2.05,24.52,24.52,0,0,0,5.68,6.42,3,3,0,0,0,3.33.68A19.74,19.74,0,0,1,103.5,146c-1-2.46-.13-3.89,2.54-3.93s5.12,0,7.67,0c1.07,0,1.81-.2,1.84-1.51s-.69-1.68-1.88-1.66c-2.43,0-4.86,0-7.29,0-2.79-.05-3.64-1.5-2.54-4.05.69-1.59,1.94-2.83,2.78-4.4a3.18,3.18,0,0,0-4.06,1.67c-3.28,5.53-8.21,7.51-14.44,6.79-1.61-.18-2.54-.91-2.55-2.6,0-1.87.08-3.75,0-5.61a3.6,3.6,0,0,1,2-3.68A22.24,22.24,0,0,0,94,121.2a3.8,3.8,0,0,0,.85-1.64c.07-.42.22-1-.15-1.24s-.76.22-1.07.48a16.11,16.11,0,0,1-4.2,2.77c-2.52,1.09-3.86.23-3.89-2.49,0-2.56,0-5.12,0-7.68,0-.62,0-1.26-.56-1.69a1.91,1.91,0,0,0-1.79-.2c-.72.24-.84.86-.84,1.51,0,2.43,0,4.87,0,7.3,0,3.24-1.51,4.12-4.46,2.75a13.87,13.87,0,0,1-2.8-1.85c-.38-.31-.67-1.15-1.3-.66s-.36,1.16-.17,1.76A5.21,5.21,0,0,0,76.13,123a12.85,12.85,0,0,1,6.21,12.89c-.14,1.48-.52,2.79-2.23,3-5.08.58-9.57-.48-12.81-4.8-.6-.8-1.15-1.64-1.72-2.45-1-1.35-2.2-1.58-3.89-1.11a20.16,20.16,0,0,1,3,4.5c1,2.46.14,3.86-2.56,3.91-2.43.05-4.86,0-7.29,0-1.1,0-2,.11-2,1.57s.78,1.62,1.92,1.61c2.62,0,5.24-.05,7.86,0,2.45.06,3.36,1.52,2.4,3.74A16.59,16.59,0,0,1,61.28,151.22Z"/><path d="M23.5,65.36c1.1-3.54,1.87-7.22,5.78-8.71a7.43,7.43,0,0,1,6,.54c2.7,1.3,4.68,3.23,4.76,6.38.07,2.95-1.58,5.27-3.45,7.56,3.71-.6,7.38-1.54,10.36,1.61,1.62,1.72,1.87,3.86,1.83,6.09C48.68,83.9,46.3,85.53,38,85.9c1.94,1.76,3.52,3.5,3.93,5.91a6.61,6.61,0,0,1-2.39,6.34c-3.63,3.29-6.61,3.41-11.17.32-.64,2.06-.56,4.18-.85,6.24-.17,1.26.69.6,1.17.31a32.39,32.39,0,0,1,12.26-4.3,46.54,46.54,0,0,1,5.39-.5c2.33,0,3.24,1.29,2.63,3.56a18.27,18.27,0,0,1-15.92,13,23.77,23.77,0,0,1-7.24-.57c-1.32-.33-2.18-.08-2.68,1.21a3.45,3.45,0,0,1-.36.65c-.89,1.38-2.37,1.95-3.48,1.24-1.47-1-1.1-2.18-.36-3.42a34.53,34.53,0,0,0,4.57-16.19,5.79,5.79,0,0,0,0-.93s-.06-.08-.1-.13c-4.84,4-8.34,4.14-12.29.57-3.25-2.93-2.88-6.07,1.46-12.5C3.41,88.1.5,86.56,0,80a6.71,6.71,0,0,1,3.21-6.71,10,10,0,0,1,7.51-.9C8.19,69.9,6.33,67.25,7,63.6c.45-2.31,2.12-3.75,4-4.93a6.79,6.79,0,0,1,7.89-.1C21.41,60.17,22.12,62.91,23.5,65.36Zm3.59,46.57c1.06.2,1.72.34,2.39.44a13.84,13.84,0,0,0,13.36-6c.24-.39.75-.82.36-1.31s-.82-.14-1.24-.06c-1.1.22-2.2.38-3.28.66A24.43,24.43,0,0,0,27.09,111.93ZM13.25,94.1c-.06,1.41,1.19,2.56,3.26,3.2,1.63.51,2.56-.41,3.1-1.66a46.15,46.15,0,0,0,2.1-7.53c.31-1.3-1-1.17-1.61-1.67a1,1,0,0,0-1.58.18c-1.42,1.8-2.91,3.56-4.34,5.36A4.57,4.57,0,0,0,13.25,94.1Zm2.68-14.49c.25-1.23-.38-1.8-1.56-2-2.14-.36-4.26-.81-6.41-1.08a2.78,2.78,0,0,0-3.07,1.29,4.38,4.38,0,0,0,.2,4.29,2.69,2.69,0,0,0,3.15,1c2.16-.55,4.3-1.17,6.46-1.74A1.43,1.43,0,0,0,15.93,79.61ZM35.45,64c0-1.51-1.07-2.66-3.09-3.17a2.4,2.4,0,0,0-3.11,1.67c-.78,2.28-1.3,4.65-2,7-.39,1.25.33,1.61,1.19,2.11a1.47,1.47,0,0,0,2.22-.42c1.23-1.56,2.54-3.06,3.79-4.6A3.9,3.9,0,0,0,35.45,64ZM41,81.59c1.24-.07,2.43-.17,3.05-1.44a4.21,4.21,0,0,0-.21-4.1c-.75-1.26-2.1-1.32-3.33-1-2.23.51-4.42,1.22-6.64,1.78-.91.23-1,.79-.87,1.54s-.26,1.81,1.05,2C36.35,80.74,38.66,81.17,41,81.59ZM37.64,93a4.09,4.09,0,0,0-1-2.1c-1.83-1.77-3.71-3.48-5.54-5.23-.57-.54-1-.3-1.44.12s-1.79.73-1.33,1.92a45.89,45.89,0,0,0,3.09,7.16c.62,1,1.59,1.87,2.95,1.32C35.93,95.57,37.26,94.69,37.64,93ZM11.31,65.34a2.9,2.9,0,0,0,.22.84c1.63,2.64,4.13,4.43,6.46,6.37.64.53,2.86-1.14,2.55-1.92-1-2.59-1.79-5.31-3.36-7.65a2.28,2.28,0,0,0-3.11-.89C12.75,62.76,11.37,63.47,11.31,65.34Zm9,13.65a4.27,4.27,0,0,0,4.14,4.21,4.13,4.13,0,0,0-.09-8.26A4.11,4.11,0,0,0,20.32,79Z"/><path d="M120.36,103a6.53,6.53,0,0,0,2.44-1c2-.84,3.32,0,3.44,2.14a18.32,18.32,0,0,0,1.06,5.73c.66-1.17,1.14-2.1,1.69-3,1.46-2.33,3-2.35,4.57-.08a2.66,2.66,0,0,0,1.26,1.3c.18-1.5.35-2.94.53-4.38a15.14,15.14,0,0,1,1.88-5.83c1-1.69,2.42-1.89,3.86-.57a31.17,31.17,0,0,1,5.68,7.15c.27.46.35,1.09,1,1.33a6.21,6.21,0,0,0,.76-2.05c.72-1.83,2.48-2.33,3.85-.93,2.56,2.62,5.71,3.36,9.19,3.43,1.48,0,2.05-.41,1.72-2-.72-3.34-1.63-6.51-4.3-8.93-1.26-1.14-.9-2.6.68-3.52.63-.37,1.31-.68,2.22-1.15-2-.88-3.72-1.62-5.43-2.43a21.49,21.49,0,0,1-4.28-2.65c-1.61-1.3-1.66-2.74-.08-4a18.18,18.18,0,0,1,7.62-3.4l2.29-.55a6.68,6.68,0,0,0-2.36-1.34c-1.68-.89-2-2.48-.63-3.82.92-.91,2-1.66,3.17-2.6a25.8,25.8,0,0,0-5.61-.1c-2.82.1-3.61-1-2.73-3.67.17-.52.32-1,.61-2a17.59,17.59,0,0,0-7.76,4.66c-1.62,1.7-3.36,1.25-4.15-1-.08-.23-.12-.48-.19-.72-.58-1.91-.6-1.94-1.94-.47a25.73,25.73,0,0,1-10.1,6.9c-1.49.55-1.24,1-.33,2,2.2,2.41,4.9,1.71,7.5,1.32a14.71,14.71,0,0,0,3.5-1.27c1.34-.58,2.47-.49,3.18.89s-.07,2.37-1.26,3.05a18.52,18.52,0,0,1-5.9,2,87.31,87.31,0,0,0,9.11,7c.87.6,1.78,1.15,2.65,1.76,1.13.78,1.87,1.79,1,3.14s-2.15,1.33-3.42.53A106.18,106.18,0,0,1,136,86.45c-.28-.23-.57-.44-1.05-.81a27.79,27.79,0,0,1-.81,7.51c-.43,1.45-1.17,2.44-2.76,2.06s-1.83-1.67-1.53-3.12c.22-1.09.48-2.19.6-3.3.48-4.48-.52-8.26-4.4-11.17-2.53-1.89-4.61-4.38-6.86-6.62a2.23,2.23,0,0,1-.63-2.56,2.14,2.14,0,0,1,1.86-1.37,2.38,2.38,0,0,1,2.23,1.15c1.61,2.34,3.54,2.15,5.88,1.2a22.3,22.3,0,0,0,11.51-9.94c.62-1.1,1.2-2.31,2.74-2.14s1.93,1.53,2.27,2.83c.79,3,.81,3,3.53,1.48a26.57,26.57,0,0,1,8.83-2.93c2-.32,3.16,1.14,2.61,3.12-.86,3.11-.87,3.13,2.42,3.47A21.51,21.51,0,0,1,168.57,67c1,.42,1.91,1,2,2.26s-.79,1.87-1.8,2.35-2,1-3,1.5-.89.88-.09,1.48a11.41,11.41,0,0,1,3,3.32c1.25,2.08.38,3.67-2.06,3.81a30.3,30.3,0,0,0-8.07,1.4c-.28.1-.53.26-1.11.55a19,19,0,0,0,8.73,3c1.28.1,2.57.14,3.11,1.57s-.35,2.37-1.19,3.32c-.16.19-.36.35-.52.54-.85,1-2.67,1.31-2.8,2.53-.12,1.06,1,2.22,1.42,3.37a30.79,30.79,0,0,1,2,9.28c.17,2.26-.58,3-2.85,3.23a21.66,21.66,0,0,1-12.37-1.87c-.84-.4-1.25-.14-1.59.63a12.34,12.34,0,0,1-2,3.17c-.71.83-1.52,1.56-2.72,1.26a2.64,2.64,0,0,1-1.86-2.35,19.94,19.94,0,0,0-4.36-8.36c-.85.37-.64,1.07-.69,1.64a56.1,56.1,0,0,0,0,7.67c.12,2.44-1.3,3.39-3.57,2.43a12.83,12.83,0,0,1-3.62-2.31c-.73-.66-1.16-.54-1.43.38s-.56,1.79-.82,2.68c-.35,1.23-.73,2.5-2.23,2.69s-2.15-1-2.82-2.08a21.85,21.85,0,0,1-2.87-7.27c-.23-1.17-.6-1.29-1.58-.71-1.31.76-2.66,2-4.26.79s-1-3-.87-4.54a25,25,0,0,1,2-8.14c.45-1,.32-1.48-.91-1.49-.92,0-1.85-.24-2.78-.33a2.1,2.1,0,0,1-2.1-1.54,2.36,2.36,0,0,1,1-2.63,23.06,23.06,0,0,0,3.86-3.53,23.79,23.79,0,0,0,3.61-5.87c.54-1.31,1.36-2.33,3-1.78,1.42.47,1.79,1.83,1,3.61a24.42,24.42,0,0,1-3.84,6.39c-.88,1-.88,1.55.63,1.73,3.52.43,4.05,1.69,2,4.6A16.42,16.42,0,0,0,120.36,103Z"/><path d="M23.83,29.44a2.2,2.2,0,0,1,1.22-2,1.76,1.76,0,0,1,2.1.14,19.55,19.55,0,0,1,1.64,1.52L83.69,84c1.7,1.69,1.7,1.69,3.44,0l54.64-54.63a17.31,17.31,0,0,1,1.78-1.65,2,2,0,0,1,2.85.22,1.94,1.94,0,0,1,.11,2.85c-.44.52-.93,1-1.42,1.49Q117.51,59.85,89.9,87.39c-1.18,1.18-1.16,1.75,0,2.91q27.59,27.45,55.06,55c.49.49,1,1,1.44,1.47a2,2,0,0,1,0,3,2,2,0,0,1-3,.1A16.35,16.35,0,0,1,142,148.6L25.48,32C24.74,31.3,23.85,30.65,23.83,29.44Z"/><path d="M107,56.9a26.34,26.34,0,0,1-2.59-1.11c-6.28-3.47-13.75-.73-15.89,6.7a12.2,12.2,0,0,1-.91,2.45,2.11,2.11,0,0,1-3.87,0,25.84,25.84,0,0,1-1.22-3.14C80.17,55.5,74,52.91,67.79,55.66c-1,.46-2,1-3.05,1.43a2.11,2.11,0,0,1-2.43-.36,2.07,2.07,0,0,1-.55-2.4c.36-1,.85-1.94,1.29-2.9,2.87-6.32.2-12.63-6.32-15l-2.48-.85c-1.07-.38-1.91-1-1.91-2.25a2.3,2.3,0,0,1,1.74-2.18c.87-.35,1.75-.68,2.62-1,6.41-2.42,9-8.75,6.06-14.92-.4-.84-.83-1.68-1.21-2.53A2.35,2.35,0,0,1,62,9.82a2.31,2.31,0,0,1,2.78-.2c2.32,1.06,4.56,2.3,7.25,2.23a10.12,10.12,0,0,0,9.56-6.3c.6-1.29,1-2.69,1.5-4A2.17,2.17,0,0,1,85.19,0a2.19,2.19,0,0,1,2,1.46c.42,1,.8,2.09,1.2,3.14a10.43,10.43,0,0,0,14.54,6c.8-.36,1.58-.76,2.36-1.15,1.11-.55,2.22-.93,3.28.08s.71,2.12.17,3.25c-1.06,2.19-2.11,4.35-2.07,6.91a10.26,10.26,0,0,0,6.44,9.65c1.21.5,2.46.89,3.69,1.34a2.24,2.24,0,0,1,.07,4.31c-1.16.45-2.34.86-3.49,1.34a10.39,10.39,0,0,0-5.6,13.95c.54,1.26,1.24,2.46,1.71,3.74C110.06,55.49,109,57,107,56.9Zm-21.42.7a7.48,7.48,0,0,0,.54-.63c3.75-5.61,9-7.87,15.61-6.81,1.72.27,1-.76.94-1.38A14.52,14.52,0,0,1,108.54,34c1.15-.88,1.39-1.26,0-2.17a14.65,14.65,0,0,1-6.08-9.11,16.35,16.35,0,0,1,.19-7.15c-7.54,1.63-13.28-.78-17.44-7-5.47,6.79-7.32,7.64-16.41,7.41-1.35,0-.78.72-.69,1.32,1,6.31-1,11.43-6.24,15.15-1.29.92-.6,1.19.2,1.76,4.93,3.48,7,8.3,6.44,14.24-.2,2.2-.26,2.15,2,1.82,5.3-.78,9.66,1.05,13.24,4.91C84.42,55.91,85,56.74,85.62,57.6Z"/><path d="M23.84,148.26a3.23,3.23,0,0,1,1.36-2.35L39,132.15Q57.88,113.24,76.8,94.32a11.8,11.8,0,0,1,2-1.69,2.12,2.12,0,0,1,2.76,3.07,12,12,0,0,1-1.13,1.24l-52,52a11.94,11.94,0,0,1-1.24,1.13,1.79,1.79,0,0,1-2.11.16A2.18,2.18,0,0,1,23.84,148.26Z"/><path d="M85.57,46.87a13.79,13.79,0,1,1-.26-27.57,12.88,12.88,0,0,1,2.78.21,2,2,0,0,1,1.75,2.62,2,2,0,0,1-2.54,1.64,9.46,9.46,0,1,0,7.59,9.84c.13-1.21.38-2.23,1.68-2.6,1.45-.42,2.63.68,2.7,2.46.23,5.53-4.33,11.41-10.06,13A11.39,11.39,0,0,1,85.57,46.87Z"/><path d="M94.84,28.24a3.24,3.24,0,0,1-2.84-3,2.19,2.19,0,0,1,2.21-2.09c1.21-.08,2.88,1.78,2.75,3A2.08,2.08,0,0,1,94.84,28.24Z"/></g></g></svg>