<svg xmlns="http://www.w3.org/2000/svg" viewBox="0 0 131.27 143.35"><g id="Calque_2" data-name="Calque 2"><g id="Calque_1-2" data-name="Calque 1"><g id="XSF6L0"><path d="M112.12,143.35c-2.59-1.14-2.21-3.62-2.5-5.73-.67-4.93-1.21-9.87-1.81-14.81,0-.31-.15-.61-.24-1A65.71,65.71,0,0,1,62,136.66a64.39,64.39,0,0,1-36.48-13.47A65,65,0,0,1,2.11,55.32c.63-2.46,2.69-3.43,4.64-2.24A3,3,0,0,1,8,56.64a76.3,76.3,0,0,0-1.44,7.5A57.77,57.77,0,0,0,9.14,90.53a56.76,56.76,0,0,0,13.92,22.58,58.83,58.83,0,0,0,32.63,16.82,59.79,59.79,0,0,0,36.73-5.41,53.23,53.23,0,0,0,11.41-7.47l-9.64-2.69L85.63,112c-2.21-.6-3.25-2-2.76-3.75.53-1.92,2.08-2.68,4.31-2.06,5.08,1.4,10.16,2.83,15.24,4.24q3.94,1.1,7.91,2.14a3.28,3.28,0,0,1,2.65,3.28c.35,3.42.83,6.83,1.25,10.24.56,4.61,1.13,9.22,1.65,13.84.19,1.76-.44,2.6-2.36,3.43Z"/><path d="M18.89,0c1.79.53,2.34,1.89,2.53,3.59.64,5.59,1.32,11.17,2,16.75a12.19,12.19,0,0,0,.3,1.19A65.44,65.44,0,0,1,58.63,7a65.22,65.22,0,0,1,37.35,7A64.42,64.42,0,0,1,123,40a64.9,64.9,0,0,1,6.22,48.08c-.66,2.46-2.92,3.44-4.8,2.08-1.36-1-1.33-2.37-1-3.78.59-2.39,1-4.81,1.37-7.24a54.45,54.45,0,0,0-.11-15.87,57.48,57.48,0,0,0-9.14-24c-9-13.29-21.23-21.94-37-25.28-18.44-3.92-35.2,0-50.18,11.47-.26.2-.48.43-.92.81l5.44,1.51c4.23,1.18,8.46,2.39,12.71,3.55,2.19.6,3.31,2,2.84,3.7-.54,2-2.14,2.73-4.41,2.1-7.09-2-14.17-4-21.28-5.89C18,30,18.58,29.53,18.05,25.34S17,17,16.49,12.76c-.4-3.18-.89-6.35-1.19-9.54C15.16,1.69,16.15.66,17.49,0Z"/></g></g></g></svg>