<svg xmlns="http://www.w3.org/2000/svg" viewBox="0 0 512 512"><g id="Calque_2" data-name="Calque 2"><g id="Calque_1-2" data-name="Calque 1"><path d="M120,358.48V421H75a15,15,0,0,0,0,30h45v46a15,15,0,0,0,30,0V451h45a15,15,0,0,0,0-30H150V358.54a143.45,143.45,0,0,0,29.61-6.71,166.45,166.45,0,0,1-23.42-24A105,105,0,1,1,135,120c59.83,0,105,51,105,105a103.68,103.68,0,0,1-12.15,48A75,75,0,0,0,251.6,291.8C263,272,270,249.41,270,225c0-69.58-57.22-135-135-135C60.56,90,0,150.56,0,225,0,294.31,52.69,350.91,120,358.48Z"/><path d="M497,0H407a15,15,0,0,0,0,30h53.79l-92,90c-23.1-18.47-52-30-83.8-30-15.71,0-30.58,3.21-44.61,8.17a166.45,166.45,0,0,1,23.42,24A105,105,0,1,1,285,330c-59.42,0-105-50.47-105-105a103.68,103.68,0,0,1,12.15-48A75,75,0,0,0,168.4,158.2C157,178,150,200.59,150,225c0,70.25,58.76,135,135,135,74.44,0,135-60.56,135-135,0-31.81-11.52-60.7-30-83.8l92-90V105a15,15,0,0,0,30,0V15A15.06,15.06,0,0,0,497,0Z"/></g></g></svg>