<svg xmlns="http://www.w3.org/2000/svg" width="27.513" height="31.641" viewBox="0 0 27.513 31.641">
  <g id="Groupe_14931" data-name="Groupe 14931" transform="translate(-280.5 -1179.712)">
    <path id="Tracé_15024" data-name="Tracé 15024" d="M66.927,53.967H54.5V32.4H66.927Zm-12.085-.342H66.585V32.742H54.842Z" transform="translate(240.51 1157.186)" stroke="#000" stroke-width="0.4"/>
    <path id="Tracé_15025" data-name="Tracé 15025" d="M26.327,53.967H13.9V32.4H26.327V53.967Zm-12.085-.342H25.985V32.742H14.242Z" transform="translate(267.211 1157.186)" stroke="#000" stroke-width="0.4"/>
    <path id="Tracé_15026" data-name="Tracé 15026" d="M25.538,26.15H12.7V23H25.5v3.15Zm-12.5-.342H25.161V23.342H13.042Z" transform="translate(268 1163.368)" stroke="#000" stroke-width="0.4"/>
    <path id="Tracé_15027" data-name="Tracé 15027" d="M67.3,26.15H54.5V23H67.3Zm-12.461-.342H66.961V23.342H54.842Z" transform="translate(240.51 1163.368)" stroke="#000" stroke-width="0.4"/>
    <path id="Tracé_15028" data-name="Tracé 15028" d="M51.357,47.785H49.2V23h2.157Zm-1.814-.342h1.472v-24.1H49.542Z" transform="translate(243.995 1163.368)" stroke="#000" stroke-width="0.4"/>
    <path id="Tracé_15029" data-name="Tracé 15029" d="M49.5,11.11,59.154,4.4l2.465,4.279Zm9.551-6.231-8.011,5.546,10.031-2.02Z" transform="translate(243.798 1175.6)" stroke="#000" stroke-width="0.4"/>
    <path id="Tracé_15030" data-name="Tracé 15030" d="M32.94,11.573,21.3,9.793,22.464,5ZM21.745,9.485l9.62,1.472-8.7-5.443Z" transform="translate(262.344 1175.205)" stroke="#000" stroke-width="0.4"/>
  </g>
</svg>
