<svg xmlns="http://www.w3.org/2000/svg" xml:space="preserve" viewBox="0 0 514.002 514.002"><g fill="none" stroke="#fff" stroke-linejoin="round" stroke-miterlimit="22.926" stroke-width="22" clip-rule="evenodd"><path d="M281.277 283.539c125.844 5.58 221.724 52.915 221.724 109.463 0 60.751-110.138 110-246.001 110-135.862 0-246.001-49.249-246.001-110 0-56.547 95.881-103.882 221.725-109.463" data-original="#000000"/><path d="M279.586 329.148c73.068 4.208 127.041 27.91 127.041 55.79 0 31.169-66.99 56.438-149.626 56.438s-149.626-25.268-149.626-56.438c0-27.88 53.973-51.582 127.041-55.79" data-original="#33cccc"/><path stroke-linecap="round" d="M277.001 213.998v150.94l-20 20-20-20v-150.94" data-original="#000000"/><circle cx="257.001" cy="111" r="100" stroke-linecap="round" data-original="#33cccc"/></g></svg>