<svg xmlns="http://www.w3.org/2000/svg" xml:space="preserve" viewBox="0 0 512 512"><g fill="none" stroke="#fff" stroke-linecap="round" stroke-linejoin="round" stroke-miterlimit="10" stroke-width="40"><circle cx="100" cy="452" r="40" data-original="#000000"/><circle cx="260" cy="212" r="40" data-original="#000000"/><path d="M220 212H80c-33.137 0-60 26.863-60 60v0c0 33.137 26.863 60 60 60h200c33.137 0 60 26.863 60 60v0c0 33.137-26.863 60-60 60H140m272-352h0m0-80c-44.102 0-80 35.879-80 80 0 14.507 3.882 28.123 10.659 39.866L412 260l69.341-120.134C488.118 128.123 492 114.507 492 100c0-44.121-35.898-80-80-80z" data-original="#000000"/></g></svg>