<svg xmlns="http://www.w3.org/2000/svg" xml:space="preserve" viewBox="0 0 682.667 682.667"><defs><clipPath id="a" clipPathUnits="userSpaceOnUse"><path fill="#fff" d="M0 512h512V0H0Z" data-original="#000000"/></clipPath></defs><g fill="none" stroke="#fff" stroke-miterlimit="10" stroke-width="40" clip-path="url(#a)" transform="matrix(1.33333 0 0 -1.33333 0 682.667)"><path d="M336 332c0-44.183-35.817-80-80-80s-80 35.817-80 80 35.817 80 80 80 80-35.817 80-80Z" data-original="#000000"/><path d="M256 492c88.365 0 160-71.634 160-160 0-120-160-260-160-260S96 212 96 332c0 88.366 71.634 160 160 160z" data-original="#000000"/><path d="M402.997 120.686C435.899 109.993 456 95.701 456 80c0-33.137-89.543-60-200-60S56 46.863 56 80c0 15.701 20.101 29.993 53.003 40.686" data-original="#000000"/></g></svg>