<svg xmlns="http://www.w3.org/2000/svg" xml:space="preserve" viewBox="0 0 512 512"><g fill="none" stroke="#fff" stroke-linecap="round" stroke-linejoin="round" stroke-miterlimit="10" stroke-width="30"><path d="M218.581 473.218C114.691 455.45 35.618 364.956 35.618 256S114.691 56.55 218.581 38.782m0 0-22.599 40.112m22.599-40.112L179.16 15m114.259 23.782C397.309 56.55 476.382 147.044 476.382 256S397.31 455.45 293.419 473.218m0 0 22.599-40.112m-22.599 40.112L332.84 497" data-original="#000000"/><path d="M330.095 373h-148.19c-14.491 0-26.238-11.747-26.238-26.238v-94.77c0-14.491 11.747-26.238 26.238-26.238h148.191c14.491 0 26.238 11.747 26.238 26.238v94.77C356.333 361.253 344.586 373 330.095 373zM333 225.754V202c0-42.526-34.474-77-77-77h0c-42.526 0-77 34.474-77 77v23.754M256 289v20.754" data-original="#000000"/></g></svg>