<svg xmlns="http://www.w3.org/2000/svg" width="61.466" height="41.324" viewBox="0 0 61.466 41.324">
  <g id="Groupe_14930" data-name="Groupe 14930" transform="translate(-1132.32 -544.657)">
    <path id="Tracé_15022" data-name="Tracé 15022" d="M1197.467,564.227l-9.3-10.143a3.4,3.4,0,0,0-2.5-1.1h-8.62v-4.357a3.393,3.393,0,0,0-3.39-3.39H1163.5l-20.8-.182h-.03a3.389,3.389,0,0,0-3.389,3.39v10.148h1.937V548.447a1.453,1.453,0,0,1,1.453-1.453h.013l20.81.182h10.169a1.454,1.454,0,0,1,1.453,1.453v27.118a1.454,1.454,0,0,1-1.42,1.451h-1.311v0h-8.891v1.937h10.169l.033,0h6.333a6.779,6.779,0,0,0,13.418,0h1.523a3.393,3.393,0,0,0,3.39-3.39v-9.227A3.38,3.38,0,0,0,1197.467,564.227Zm-10.731,18.782a4.842,4.842,0,1,1,4.842-4.842A4.848,4.848,0,0,1,1186.736,583.009Zm8.232-5.811h-1.523a6.779,6.779,0,0,0-13.418,0h-3.307a3.364,3.364,0,0,0,.331-1.451V554.922h8.62a1.458,1.458,0,0,1,1.071.471l8.446,9.214h-9.9a1.454,1.454,0,0,1-1.453-1.453v-6.3h-1.937v6.3a3.394,3.394,0,0,0,3.39,3.39h11.138v9.2A1.454,1.454,0,0,1,1194.969,577.2Z" transform="translate(-4.972)" stroke="#fff" stroke-width="0.8"/>
    <path id="Tracé_15023" data-name="Tracé 15023" d="M1155.373,601.581h-4.53a2.868,2.868,0,0,0,.465-1.562,2.932,2.932,0,0,0-1.016-2.207,3.522,3.522,0,0,0-4.624,0,.535.535,0,1,1-1.065,0,3.522,3.522,0,0,0-4.624,0,2.931,2.931,0,0,0-1.016,2.208,2.867,2.867,0,0,0,.465,1.562h-4.53a2.182,2.182,0,0,0-2.179,2.179v3.823a2.18,2.18,0,0,0,2.081,2.174v12.97a2.182,2.182,0,0,0,2.179,2.179h16.312a2.182,2.182,0,0,0,2.179-2.179v-12.97a2.18,2.18,0,0,0,2.081-2.174V603.76A2.182,2.182,0,0,0,1155.373,601.581Zm-8.417-2.322a1.6,1.6,0,0,1,2.049,0,.973.973,0,0,1,0,1.521,3.954,3.954,0,0,1-2.275.8h-.055a.778.778,0,0,1-.477-.127.549.549,0,0,1-.094-.352A2.925,2.925,0,0,1,1146.956,599.259Zm-5.689,0a1.6,1.6,0,0,1,2.049,0h0a2.923,2.923,0,0,1,.851,1.843.549.549,0,0,1-.094.352.782.782,0,0,1-.479.127h-.042a3.952,3.952,0,0,1-2.286-.8.973.973,0,0,1,0-1.521Zm-6.61,8.325V603.76a.242.242,0,0,1,.242-.242h6.146v4.307H1134.9A.242.242,0,0,1,1134.657,607.583Zm2.323,15.386a.242.242,0,0,1-.242-.242V609.763h4.307V622.97Zm6,0V603.518h4.307V622.97Zm10.551-.242a.242.242,0,0,1-.242.242h-4.065V609.763h4.307Zm2.081-15.144a.243.243,0,0,1-.242.242h-6.146v-4.307h6.146a.243.243,0,0,1,.242.242Z" transform="translate(0 -39.326)" stroke="#fff" stroke-width="0.8"/>
  </g>
</svg>
