<svg xmlns="http://www.w3.org/2000/svg" width="37.775" height="37" viewBox="0 0 37.775 37">
  <g id="Groupe_15037" data-name="Groupe 15037" transform="translate(-278.59 -444.058)">
    <path id="Tracé_15071" data-name="Tracé 15071" d="M287.59,449.058v-4a1,1,0,0,0-1-1h-6a1,1,0,0,0-1,.984l0,.016v4a1,1,0,0,0-1,.984l0,.016v30a.961.961,0,0,0,.037.185.97.97,0,0,0,.963.815h8a1,1,0,0,0,1-1v-30A1,1,0,0,0,287.59,449.058Zm-7-4h6v4h-6Zm7,35h-8v-30h8Z" fill="#040405"/>
    <path id="Tracé_15072" data-name="Tracé 15072" d="M301.638,449.058v-4a1,1,0,0,0-1-1h-6a1,1,0,0,0-1,.984l0,.016v4a1,1,0,0,0-1,.984l0,.016v30a.964.964,0,0,0,.037.185.97.97,0,0,0,.963.815h8a1,1,0,0,0,1-1v-30A1,1,0,0,0,301.638,449.058Zm-7-4h6v4h-6Zm7,35h-8v-30h8Z" fill="#040405"/>
    <path id="Tracé_15073" data-name="Tracé 15073" d="M315.365,449.058v-4a1,1,0,0,0-1-1h-6a1,1,0,0,0-1,.984l0,.016v4a1,1,0,0,0-1,.984l0,.016v30a.963.963,0,0,0,.038.185.968.968,0,0,0,.962.815h8a1,1,0,0,0,1-1v-30A1,1,0,0,0,315.365,449.058Zm-7-4h6v4h-6Zm7,35h-8v-30h8Z" fill="#040405"/>
  </g>
</svg>
