<svg xmlns="http://www.w3.org/2000/svg" viewBox="0 0 64 64" xml:space="preserve"><path fill-rule="evenodd" d="M56 8a6 6 0 0 0-6-6H8a6 6 0 0 0-6 6v34a6 6 0 0 0 6 6h15.335c.22-.387.492-.746.811-1.065l23.542-23.542A8.17 8.17 0 0 1 56 21.401zM35 6H23v12h12z" clip-rule="evenodd" data-original="#000000"/><path d="M49.81 25.515a5.17 5.17 0 0 1 7.312 0l3.363 3.363a5.17 5.17 0 0 1 0 7.312L36.943 59.733a2 2 0 0 1-1.066.555l-9.53 1.682a2 2 0 0 1-2.317-2.318l1.682-9.529a2 2 0 0 1 .555-1.066z" data-original="#000000"/></svg>