<svg xmlns="http://www.w3.org/2000/svg" width="46.565" height="41.038" viewBox="0 0 46.565 41.038">
  <g id="Groupe_14929" data-name="Groupe 14929" transform="translate(-564.371 -1016.963)">
    <path id="Tracé_15018" data-name="Tracé 15018" d="M667.333,1113.455H641.408a.737.737,0,0,0-.736.736v15.431a.737.737,0,0,0,.736.736h25.925a.736.736,0,0,0,.736-.736v-15.431A.736.736,0,0,0,667.333,1113.455Zm-.736,15.431H642.145v-13.958H666.6Z" transform="translate(-57.384 -72.608)" stroke="#fff" stroke-width="0.5"/>
    <path id="Tracé_15019" data-name="Tracé 15019" d="M580.815,1056.278h-1.782v-30.684h9.4v12.537a.736.736,0,0,0,1.473,0v-12.537h10.7a.765.765,0,0,1,.764.764v5.873H592.2a.736.736,0,0,0,0,1.473h6.432v4.427a.736.736,0,0,0,1.473,0V1033.7h2a.736.736,0,0,0,.736-.736v-6.609a2.239,2.239,0,0,0-2.237-2.237H589.59a5.3,5.3,0,0,0,.555-.437h0a4.057,4.057,0,0,0,1.45-3.973,3.283,3.283,0,0,0-2.38-2.38,4.057,4.057,0,0,0-3.974,1.45,6.141,6.141,0,0,0-1.136,1.847,6.151,6.151,0,0,0-1.136-1.848,4.057,4.057,0,0,0-3.973-1.45,3.283,3.283,0,0,0-2.38,2.38,4.057,4.057,0,0,0,1.45,3.973h0a5.307,5.307,0,0,0,.555.437H566.858a2.239,2.239,0,0,0-2.237,2.237v6.609a.736.736,0,0,0,.736.736h2v23.311a.736.736,0,0,0,.736.736h12.719a.736.736,0,1,0,0-1.473Zm5.511-36.5a2.92,2.92,0,0,1,2.072-1.075,1.865,1.865,0,0,1,.456.056,1.813,1.813,0,0,1,1.313,1.313,2.646,2.646,0,0,1-1.019,2.528,7.368,7.368,0,0,1-4.291,1.467A7.337,7.337,0,0,1,586.326,1019.777Zm-8.281.295a1.813,1.813,0,0,1,1.313-1.313,2.648,2.648,0,0,1,2.528,1.018,7.368,7.368,0,0,1,1.467,4.29,7.366,7.366,0,0,1-4.289-1.467A2.646,2.646,0,0,1,578.044,1020.072Zm-9.212,13.632h6.678a.736.736,0,1,0,0-1.473h-9.416v-5.873a.765.765,0,0,1,.764-.764h10.7v30.684h-8.728Z" stroke="#fff" stroke-width="0.5"/>
    <path id="Tracé_15020" data-name="Tracé 15020" d="M660.382,1140.174h16.306a.736.736,0,0,0,0-1.473H660.382a.736.736,0,1,0,0,1.473Z" transform="translate(-71.7 -91.657)" stroke="#fff" stroke-width="0.5"/>
    <path id="Tracé_15021" data-name="Tracé 15021" d="M660.382,1152.55h16.306a.736.736,0,0,0,0-1.473H660.382a.736.736,0,1,0,0,1.473Z" transform="translate(-71.7 -100.995)" stroke="#fff" stroke-width="0.5"/>
  </g>
</svg>
