<svg xmlns="http://www.w3.org/2000/svg" viewBox="0 0 520 520" xml:space="preserve">
    <path d="m507.071 252.868-34.939-34.939c-117.241-117.239-307.009-117.254-424.264 0l-34.939 34.939c-3.979 3.98-3.83 10.432 0 14.264l34.938 34.938c117.237 117.238 307.007 117.257 424.264 0l34.939-34.938c3.976-3.975 3.836-10.428.001-14.264zm-49.082 35.06c-109.424 109.426-286.543 109.437-395.979 0l-27.929-27.929 27.929-27.928c109.422-109.423 286.542-109.439 395.979 0l27.93 27.928z" fill="white"/>
    <path d="M260 169.939c-49.626 0-90 40.374-90 90s40.374 90 90 90 90-40.374 90-90-40.374-90-90-90zm0 159.999c-38.598 0-70-31.402-70-70s31.402-70 70-70 70 31.402 70 70-31.402 70-70 70z" fill="white"/>
</svg>
