<svg xmlns="http://www.w3.org/2000/svg" viewBox="0 0 500 500" xml:space="preserve"><path fill-rule="evenodd" d="m332.677 273.904-9.535-9.535c-11.576-11.576-14.504-29.187-7.645-43.853.633-1.354 3.879-5.083 3.699-6.026-1.219-6.371-1.549-13.109-2.444-17.516-2.447-12.037-27.896-28.941-39.349-34.491-7.58-3.673-15.492-4.287-29.308-4.311a.934.934 0 0 0-.936.882c-1.434 24.244-2.634 33.929-2.611 58.292.029 31.347 58.623 134.195 83.875 151.6 17.517 12.074 36.236 22.586 55.647 32.197 4.023 1.992 5.669 6.838 3.641 10.854l-23.277 46.087c-4.962 9.826-13.781 10.939-14.109-2.121l-.836-33.252c-.221-8.836-22.316-15.637-30.261-19.571-20.338-10.074-38.677-23.392-55.264-38.718-15.485-14.309-22.701-31.774-35.33-48.58-3.399-4.523-6.368-8.57-12.856-8.568-6.759.001-34.616 38.53-36.784 43.613-16.873 39.548-10.364 47.188-18.381 88.423l-2.986 14.929c-1.635 8.174-8.638 13.915-16.973 13.915h-34.933c-16.515 0-10.48-9.578-2.45-17.65a.866.866 0 0 1 .164-.131l23.705-14.983a.908.908 0 0 0 .423-.629c3.669-20.842 2.2-75.946 9.291-97.921 9.055-28.062 16.122-50.505 32.777-79.6 13.735-23.995 4.3-41.626.231-68.646a.935.935 0 0 0-1.514-.59c-11.826 9.56-24.786 28.971-39.827 30.038-17.748 1.259-55.143-20.005-72.413-30.4-8.379-5.044-17.039-11.028-22.784-17.297-6.791-7.411-9.508-15.218-2.865-22.334 7.444-7.974 19.091 1.402 26.794 6.216 14.667 9.167 44.108 25.665 60.871 23.412 15.545-2.088 28.894-30.045 44.13-51.173 12.757-17.69 23.891-22.652 45.865-23.977 20.319-1.226 31.673-.956 51.178 6.08 30.195 10.891 82.63 50.025 89.468 82.414.397 1.878.76 4.099 1.028 6.519a.907.907 0 0 0 .388.66c.225.16.481.211.75.15a.982.982 0 0 1 .225-.023c10.028.152 19.604 4.097 26.789 11.281l9.535 9.536a.937.937 0 0 1 0 1.324l-8.608 8.608a.937.937 0 0 1-1.324 0l-9.536-9.535c-4.53-4.53-10.548-7.041-16.802-7.215a.92.92 0 0 1-.225-.034.905.905 0 0 0-.768.122.906.906 0 0 0-.411.66c-1.272 9.815-5.509 18.475-15.838 18.656-4.941.087-5.799-1.829-6.861-1.35a.908.908 0 0 0-.525.631c-2.035 8.309.264 17.241 6.491 23.468l9.535 9.535a.937.937 0 0 1 0 1.324L334 273.908a.94.94 0 0 1-1.323-.004zm1.736 44.689 69.081-19.218c3.578-.995 6.158-3.575 7.153-7.153l19.218-69.08a.915.915 0 0 0-.24-.913l-10.547-10.547a.937.937 0 0 0-1.324 0l-94.8 94.8a.937.937 0 0 0 0 1.324l10.547 10.547a.915.915 0 0 0 .912.24zm72.812-5.72-60.42 16.809a.937.937 0 0 0-.411 1.564l30.569 30.569a.937.937 0 0 0 1.324 0l94.8-94.8a.937.937 0 0 0 0-1.324l-30.569-30.569a.937.937 0 0 0-1.564.411l-16.809 60.42c-2.349 8.443-8.477 14.572-16.92 16.92zM182.442 31.848c17.962 0 32.524 14.562 32.524 32.524 0 17.963-14.562 32.524-32.524 32.524s-32.524-14.562-32.524-32.524c0-17.963 14.562-32.524 32.524-32.524z" clip-rule="evenodd" data-original="#000000"/></svg>