<svg xmlns="http://www.w3.org/2000/svg" width="37.103" height="37.104" viewBox="0 0 37.103 37.104">
  <g id="Groupe_15038" data-name="Groupe 15038" transform="translate(-218.561 -325.695)">
    <path id="Tracé_15074" data-name="Tracé 15074" d="M255.65,344.207l0-.011a18.53,18.53,0,0,0-18.063-18.478l-.054-.008q-.034-.008-.072-.012h-.043c-.05,0-.1.006-.156.005l-.079,0a1.787,1.787,0,0,0-.231,0c-.042,0-.085.007-.13.008l-.076,0c-.038,0-.076,0-.11.006a18.532,18.532,0,0,0-18.07,18.525,18.644,18.644,0,0,0,.525,4.377,18.428,18.428,0,0,0,2.147,5.2,18.5,18.5,0,0,0,15.486,8.931c.044,0,.087,0,.132,0h.081a.451.451,0,0,0,.185.042h0a.441.441,0,0,0,.187-.044c.087,0,.173,0,.253-.009a18.358,18.358,0,0,0,13.406-6.2,18.546,18.546,0,0,0,2.732-4.038,18.194,18.194,0,0,0,1.722-5.407,19.773,19.773,0,0,0,.219-2.676.445.445,0,0,0,.025-.136A.279.279,0,0,0,255.65,344.207Zm-22.263-17.038a13.285,13.285,0,0,0-3.56,5.306c-.214.543-.424,1.14-.642,1.822h-6.016c-.081,0-.161,0-.245,0A17.346,17.346,0,0,1,233.387,327.169Zm-11.034,8.05H228.9a29.933,29.933,0,0,0-1.142,7.539c-.011.229-.008.461-.006.686,0,.128,0,.257,0,.385h-7.48q-.193,0-.387,0A17.387,17.387,0,0,1,222.353,335.219Zm.433,18.145h-.249a17.369,17.369,0,0,1-2.628-8.613h7.842a33.846,33.846,0,0,0,1.219,8.613h-6.184Zm.371.922h6.085a21.565,21.565,0,0,0,1.568,3.685,12.083,12.083,0,0,0,2.33,3.077A17.394,17.394,0,0,1,223.157,354.286Zm13.5,6.823c0,.141,0,.282,0,.424-.41-.014-.887-.037-1.367-.092l-.093-.045-.025.043.023-.044c-.121-.063-.24-.128-.349-.191a8.2,8.2,0,0,1-2.3-2.187,16.345,16.345,0,0,1-1.922-3.557c-.105-.274-.2-.558-.283-.834-.036-.114-.072-.227-.109-.34h6.421Zm0-7.745H229.93a29.885,29.885,0,0,1-1.255-7.818c-.008-.161-.006-.325-.005-.484,0-.1,0-.207,0-.311h7.986Zm0-9.535h-7.991a32.608,32.608,0,0,1,1.191-8.61h6.8Zm0-9.532h-6.545a15.27,15.27,0,0,1,3.609-6.183,5.536,5.536,0,0,1,2.313-1.338c.2-.014.409-.021.609-.028h.014Zm15.024,0h-6.646l-.034-.11c-.07-.226-.142-.461-.219-.688a13.844,13.844,0,0,0-4.157-6.462A17.532,17.532,0,0,1,251.681,334.3Zm-14.1-7.574c.116,0,.231.01.344.017.072.005.145.009.207.011a5.023,5.023,0,0,1,.632.211l.018.006h0a.416.416,0,0,0,.071.03c.057.025.113.052.166.081.115.058.225.118.335.179a7.366,7.366,0,0,1,.641.428l.012.007.027.021a.4.4,0,0,0,.048.036l.081.067c.026.021.053.042.08.065.1.087.2.178.309.278.205.2.4.407.589.614a13.66,13.66,0,0,1,2.018,3.188c.325.728.63,1.513.907,2.334h-6.487Zm0,8.5h6.759a27.086,27.086,0,0,1,1.117,6.184c.054.731.083,1.525.09,2.426h-7.966Zm0,9.532h7.955a31.729,31.729,0,0,1-1.282,8.613h-6.673Zm6.344,12.188a28.37,28.37,0,0,0,1.027-2.653h6.164c.112,0,.225,0,.338,0a17.351,17.351,0,0,1-10.542,6.9A12.773,12.773,0,0,0,243.923,356.939Zm-3.722,3.64h0c-.042.038-.09.078-.143.118l-.026.021a.624.624,0,0,0-.052.045l-.043.035a6.334,6.334,0,0,1-.62.416c-.111.066-.22.126-.333.183l-.061.029-.077.038a.617.617,0,0,1-.059.026c-.362.031-.757.05-1.207.056v-7.261h6.409l-.011.04c-.009.035-.019.071-.03.105a18.723,18.723,0,0,1-1.8,3.829,10.957,10.957,0,0,1-1.065,1.44,7.669,7.669,0,0,1-.577.6C240.409,360.4,240.3,360.492,240.2,360.579Zm11.861-7.215h-6.82a28.676,28.676,0,0,0,1.123-6.4c.052-.662.084-1.387.1-2.216H254.7A17.38,17.38,0,0,1,252.062,353.364Zm-5.587-9.535a31.956,31.956,0,0,0-1.168-8.61H250.9l.39,0c.256,0,.521,0,.781,0h.049a.4.4,0,0,0,.126-.02,17.315,17.315,0,0,1,2.291,6.356,18.045,18.045,0,0,1,.179,2.274Z" fill="#040405"/>
  </g>
</svg>
