<svg xmlns="http://www.w3.org/2000/svg" width="38.722" height="38.717" viewBox="0 0 38.722 38.717">
  <g id="Groupe_15039" data-name="Groupe 15039" transform="translate(-145.844 -333.838)">
    <path id="Tracé_15075" data-name="Tracé 15075" d="M184.424,352.852l-2.9-2.9,1.564-3.789a.49.49,0,0,0-.263-.641l-3.789-1.564v-4.1a.494.494,0,0,0-.491-.492h-4.1l-1.564-3.787a.49.49,0,0,0-.641-.264l-3.789,1.564-2.9-2.9a.491.491,0,0,0-.695,0l-2.9,2.9-3.788-1.564a.49.49,0,0,0-.642.264l-1.563,3.787h-4.1a.493.493,0,0,0-.491.492v4.093l-3.788,1.563a.491.491,0,0,0-.264.64l1.564,3.791-2.9,2.9a.491.491,0,0,0,0,.7l2.9,2.9-1.564,3.788a.489.489,0,0,0,.264.641l3.788,1.564v4.1a.494.494,0,0,0,.492.492h4.1l1.563,3.787a.49.49,0,0,0,.266.265.483.483,0,0,0,.375,0l3.789-1.564,2.9,2.9a.492.492,0,0,0,.694,0l2.9-2.9,3.787,1.564a.493.493,0,0,0,.642-.265l1.564-3.786h4.1a.494.494,0,0,0,.491-.492v-4.1l3.788-1.564a.491.491,0,0,0,.265-.64l-1.565-3.789,2.9-2.9A.492.492,0,0,0,184.424,352.852Zm-3.825,3.131a.488.488,0,0,0-.106.535L182,360.156l-3.637,1.506a.49.49,0,0,0-.3.454v3.936h-3.937a.489.489,0,0,0-.453.3l-1.507,3.637-3.638-1.505a.482.482,0,0,0-.534.105l-2.784,2.784-2.784-2.784a.56.56,0,0,0-.346-.143.608.608,0,0,0-.187.037l-3.639,1.506-1.507-3.637a.489.489,0,0,0-.453-.3h-3.937v-3.937a.489.489,0,0,0-.3-.453l-3.637-1.506,1.506-3.638a.488.488,0,0,0-.106-.535L147.03,353.2l2.783-2.783a.49.49,0,0,0,.106-.535l-1.506-3.638,3.637-1.506a.489.489,0,0,0,.3-.454v-3.937h3.937a.488.488,0,0,0,.453-.3l1.507-3.637,3.638,1.5a.488.488,0,0,0,.534-.1l2.784-2.784,2.784,2.784a.488.488,0,0,0,.534.1l3.638-1.5,1.507,3.637a.488.488,0,0,0,.453.3h3.937v3.941a.489.489,0,0,0,.3.454L182,346.247l-1.506,3.638a.49.49,0,0,0,.106.535l2.784,2.783Z" fill="#272727"/>
    <path id="Tracé_15076" data-name="Tracé 15076" d="M172.276,349.545l-8.553,8.553-4.842-4.842a.491.491,0,0,0-.694.695l5.189,5.189a.493.493,0,0,0,.694,0l8.9-8.9a.491.491,0,1,0-.695-.695Z" fill="#272727"/>
    <path id="Tracé_15077" data-name="Tracé 15077" d="M165.206,341.589A11.612,11.612,0,1,0,176.818,353.2,11.625,11.625,0,0,0,165.206,341.589Zm0,22.245h-.25v-.008a10.422,10.422,0,1,1,.25.008Z" fill="#272727"/>
  </g>
</svg>
