<svg xmlns="http://www.w3.org/2000/svg" width="44.556" height="29.707" viewBox="0 0 44.556 29.707">
  <path id="Tracé_15056" data-name="Tracé 15056" d="M8.97,21A2.985,2.985,0,0,0,6,23.97V42.778a.99.99,0,1,0,1.98,0v-9.9h39.6V46.737a.967.967,0,0,1-.99.99H8.97a.967.967,0,0,1-.99-.99.99.99,0,1,0-1.98,0,2.985,2.985,0,0,0,2.97,2.97H46.586a2.985,2.985,0,0,0,2.97-2.97V23.97A2.985,2.985,0,0,0,46.586,21Zm0,1.98H46.586a.967.967,0,0,1,.99.99v1.98H7.98V23.97A.967.967,0,0,1,8.97,22.98Zm-.99,4.949h39.6V30.9H7.98Zm26.727,9.9a3.96,3.96,0,1,0,3.465,5.878,3.96,3.96,0,1,0,0-3.836A3.972,3.972,0,0,0,34.707,37.828Zm0,1.98a1.98,1.98,0,1,1-1.98,1.98A1.965,1.965,0,0,1,34.707,39.808Zm6.929,0a1.98,1.98,0,1,1-1.98,1.98A1.965,1.965,0,0,1,41.636,39.808Z" transform="translate(-5.5 -20.5)" stroke="#fff" stroke-width="1"/>
</svg>
