<svg xmlns="http://www.w3.org/2000/svg" xml:space="preserve" viewBox="0 0 307 307"><g fill="#fff"><path d="M217.2 307H89.8c-15.255-.02-27.616-12.385-27.63-27.64V27.64C62.184 12.385 74.545.02 89.8 0h127.4c15.255.02 27.616 12.385 27.63 27.64v251.72c-.014 15.255-12.375 27.62-27.63 27.64zM89.8 10c-9.735.014-17.622 7.905-17.63 17.64v251.72c.008 9.735 7.895 17.626 17.63 17.64h127.4c9.735-.014 17.621-7.905 17.63-17.64V27.64c-.009-9.735-7.895-17.626-17.63-17.64z" data-original="#000000"/><path d="M185.43 28.17h-63.86c-9.895-.014-17.912-8.035-17.92-17.93V5a5 5 0 0 1 5-5h89.7a5 5 0 0 1 5 5v5.24c-.008 9.895-8.025 17.916-17.92 17.93zM113.65 10v.24a7.933 7.933 0 0 0 7.92 7.93h63.86a7.933 7.933 0 0 0 7.92-7.93V10zm81.146 276.685h-82.592a5 5 0 0 1 0-10h82.592a5 5 0 0 1 0 10zm49.185-202.074a5 5 0 0 1-5-5V55.315a5 5 0 0 1 10 0v24.296a5 5 0 0 1-5 5zm-180.962 20a5 5 0 0 1-5-5V75.315a5 5 0 0 1 10 0v24.296a5 5 0 0 1-5 5zm0 40a5 5 0 0 1-5-5v-24.296a5 5 0 0 1 10 0v24.296a5 5 0 0 1-5 5z" data-original="#000000"/></g></svg>