<svg xmlns="http://www.w3.org/2000/svg" viewBox="0 0 20.371 19.949"><g data-name="Groupe 14881"><g data-name="Layer 25"><path data-name="Tracé 14946" d="M19.937 0H.434A.434.434 0 0 0 0 .434v19.081a.434.434 0 0 0 .434.434h19.5a.434.434 0 0 0 .434-.434V.434A.434.434 0 0 0 19.934 0Zm-.434 19.079H.865V.868h18.638Z"/><path data-name="Tracé 14947" d="M10.185 11.041a4.834 4.834 0 0 0 4.828-4.828V3.324a.434.434 0 1 0-.868 0v2.889a3.96 3.96 0 1 1-7.92 0V3.324a.434.434 0 1 0-.868 0v2.889a4.834 4.834 0 0 0 4.828 4.828Z"/></g></g></svg>