<svg xmlns="http://www.w3.org/2000/svg" xml:space="preserve" viewBox="0 0 4000 4000"><path fill="#fff" d="M3500.013 1946.139c-46.031 0-83.336 37.304-83.336 83.337v1137.19c0 137.851-112.152 250.006-249.987 250.006h-583.327v-749.999c0-137.851-112.152-249.988-250.006-249.988h-666.662c-137.852 0-250.006 112.132-250.006 249.988v749.999H833.363c-137.852 0-249.987-112.155-249.987-250.006v-1137.19c0-46.01-37.304-83.337-83.336-83.337s-83.336 37.304-83.336 83.337v1137.19c0 229.746 186.909 416.657 416.657 416.657h666.663c46.031 0 83.336-37.304 83.336-83.337v-833.331c0-45.938 37.378-83.337 83.336-83.337h666.662c45.958 0 83.336 37.376 83.336 83.337v833.331c0 46.01 37.304 83.337 83.336 83.337h666.662c229.748 0 416.676-186.911 416.676-416.657v-1137.19c-.021-46.033-37.343-83.337-83.355-83.337zm249.967-946.558c-.11-21.179-8.209-42.339-24.372-58.501l-500.03-500.011a83.325 83.325 0 0 0-58.926-24.39H833.364a83.401 83.401 0 0 0-58.926 24.39L274.427 941.08c-17.472 17.49-25.257 40.754-23.966 63.631-.166-.018-.462 245.299-.462 245.299 0 275.689 224.306 499.994 500.01 499.994 173.755 0 327.031-89.129 416.657-224.012 89.645 134.883 242.921 224.012 416.657 224.012s327.012-89.129 416.657-224.012c89.645 134.883 242.921 224.012 416.657 224.012s327.031-89.129 416.657-224.012c89.645 134.883 242.921 224.012 416.657 224.012 275.705 0 500.011-224.287 500.011-499.994.057-.018.038-250.299.018-250.429zM867.882 583.334h2264.253l333.359 333.342H534.542zm-117.854 1000c-183.791 0-333.322-149.531-333.322-333.32v-166.669h666.662v166.669c.001 183.772-149.53 333.32-333.34 333.32zm833.333 0c-183.791 0-333.322-149.531-333.322-333.32v-166.669h666.643v166.669c.001 183.772-149.511 333.32-333.321 333.32zm833.333 0c-183.791 0-333.322-149.531-333.322-333.32v-166.669h666.663v166.669c-.019 183.772-149.551 333.32-333.341 333.32zm1166.653-333.342c0 183.79-149.531 333.32-333.322 333.32s-333.322-149.531-333.322-333.32v-166.669h666.662v166.669z" data-original="#000000"/></svg>