<svg xmlns="http://www.w3.org/2000/svg" version="1.1" xmlns:xlink="http://www.w3.org/1999/xlink" width="512" height="512" x="0" y="0" viewBox="0 0 512 512" style="enable-background:new 0 0 512 512" xml:space="preserve"><g><g data-name="01-home"><path d="M256 4C147.925 4 60 91.925 60 200c0 52.5 31.807 119.92 94.537 200.378a1065.816 1065.816 0 0 0 93.169 104.294 12 12 0 0 0 16.588 0 1065.816 1065.816 0 0 0 93.169-104.294C420.193 319.92 452 252.5 452 200 452 91.925 364.075 4 256 4zm0 336c-77.2 0-140-62.8-140-140S178.8 60 256 60s140 62.8 140 140-62.8 140-140 140z" fill="#64748b" opacity="1" data-original="#64748b"></path><path d="m352.072 183.121-88-80a12 12 0 0 0-16.144 0l-88 80a12.006 12.006 0 0 0-2.23 15.039 12.331 12.331 0 0 0 10.66 5.84H180v76a12 12 0 0 0 12 12h28a12 12 0 0 0 12-12v-44a12 12 0 0 1 12-12h24a12 12 0 0 1 12 12v44a12 12 0 0 0 12 12h28a12 12 0 0 0 12-12v-76h11.642a12.331 12.331 0 0 0 10.66-5.84 12.006 12.006 0 0 0-2.23-15.039z" fill="#64748b" opacity="1" data-original="#64748b"></path></g></g></svg>