<svg xmlns="http://www.w3.org/2000/svg" version="1.1" xmlns:xlink="http://www.w3.org/1999/xlink" width="512" height="512" x="0" y="0" viewBox="0 0 32 32" style="enable-background:new 0 0 512 512" xml:space="preserve" fill-rule="evenodd" class=""><g><path d="m20.552 22.448-3.394 1.204a.634.634 0 0 1-.81-.81l1.204-3.394a.126.126 0 0 1 .032-.05l8.979-8.98a1.135 1.135 0 0 1 1.605 0l1.414 1.414a1.135 1.135 0 0 1 0 1.605l-8.98 8.979a.126.126 0 0 1-.05.032zM24 21.847V25c0 .796-.316 1.559-.879 2.121A2.996 2.996 0 0 1 21 28H5a2.996 2.996 0 0 1-2.121-.879A2.996 2.996 0 0 1 2 25V11h21.153l-6.984 6.984a2.13 2.13 0 0 0-.502.796l-1.204 3.393a2.635 2.635 0 0 0 3.364 3.364l3.393-1.204c.3-.106 2.78-2.486 2.78-2.486zM7 23h3.169a1 1 0 0 0 0-2H7a1 1 0 0 0 0 2zm0-4h5.169a1 1 0 0 0 0-2H7a1 1 0 0 0 0 2zm0-4h9.169a1 1 0 0 0 0-2H7a1 1 0 0 0 0 2zM2 9V7c0-.796.316-1.559.879-2.121A2.996 2.996 0 0 1 5 4h16c.796 0 1.559.316 2.121.879C23.684 5.441 24 6.204 24 7v2z" fill="#64748b" opacity="1" data-original="#64748b" class=""></path></g></svg>