<svg xmlns="http://www.w3.org/2000/svg" version="1.1" xmlns:xlink="http://www.w3.org/1999/xlink" width="512" height="512" x="0" y="0" viewBox="0 0 32 32" style="enable-background:new 0 0 512 512" xml:space="preserve" class=""><g><path d="M30 16.55V17h-2.86l-.5-2h2.92l.01.01c.28.47.43 1 .43 1.54zm-4.8.94-.5-2A1.996 1.996 0 0 1 26.64 13h1.72l-.92-1.54A3.01 3.01 0 0 0 24.87 10H23v8c3.31 0 6 2.69 6 6 0 .08 0 .16-.01.24.62-.55 1.01-1.35 1.01-2.24v-3h-2.86c-.92 0-1.72-.62-1.94-1.51zM23 20c-2.206 0-4 1.794-4 4s1.794 4 4 4 4-1.794 4-4-1.794-4-4-4zm-2-1.65V7c0-1.65-1.35-3-3-3H5C3.35 4 2 5.35 2 7v15c0 .89.39 1.69 1.01 2.24C3 24.16 3 24.08 3 24c0-3.31 2.69-6 6-6s6 2.69 6 6c0 .34-.03.68-.09 1h2.18a5.47 5.47 0 0 1-.09-1c0-2.61 1.67-4.84 4-5.65zM9 20c-2.21 0-4 1.79-4 4 0 .35.04.68.13 1 .44 1.73 2.01 3 3.87 3s3.43-1.27 3.87-3c.09-.32.13-.65.13-1 0-2.21-1.79-4-4-4z" fill="#64748b" opacity="1" data-original="#64748b" class=""></path></g></svg>