<svg xmlns="http://www.w3.org/2000/svg" version="1.1" xmlns:xlink="http://www.w3.org/1999/xlink" width="512" height="512" x="0" y="0" viewBox="0 0 512 512" style="enable-background:new 0 0 512 512" xml:space="preserve" class=""><g><path d="M349.439 73.61h-94.31v105.84c0 4.84-2.79 9.25-7.18 11.31a12.43 12.43 0 0 1-5.32 1.19c-2.85 0-5.68-.98-7.97-2.87l-26.79-22.17-26.8 22.17a12.503 12.503 0 0 1-20.471-9.63V73.61H66.3c-18.729 0-34.05 15.32-34.05 34.05V390.8c0 18.72 15.32 34.04 34.05 34.04h195.92V216.2c0-20.22 16.45-36.67 36.67-36.67h25.46c4.66-9.63 14.53-16.29 25.92-16.29h3.04c2.74-14.15 15.23-24.87 30.181-24.87v-30.71c-.001-18.73-15.331-34.05-34.052-34.05zM150.31 387.25H81.36c-6.9 0-12.5-5.59-12.5-12.5 0-6.9 5.6-12.5 12.5-12.5h68.949c6.9 0 12.5 5.6 12.5 12.5.001 6.91-5.599 12.5-12.499 12.5zm-81.45-47.33c0-6.91 5.6-12.5 12.5-12.5h48.52c6.9 0 12.5 5.59 12.5 12.5 0 6.9-5.6 12.5-12.5 12.5H81.36c-6.9 0-12.5-5.6-12.5-12.5zm81.45-22.34H81.36c-6.9 0-12.5-5.6-12.5-12.5 0-6.91 5.6-12.5 12.5-12.5h68.949c6.9 0 12.5 5.59 12.5 12.5.001 6.9-5.599 12.5-12.499 12.5zm79.82-243.97v79.27l-14.29-11.83c-2.31-1.91-5.14-2.87-7.97-2.87s-5.66.96-7.971 2.87l-14.3 11.83V73.61zm190.349 118.41v.01a3.783 3.783 0 0 1-3.779 3.78h-66.43c-1.46 0-2.72-.83-3.35-2.04a12.649 12.649 0 0 0 0-3.49 3.762 3.762 0 0 1 3.35-2.04h14.98c6.899 0 12.5-5.59 12.5-12.5v-6.64c0-3.16 2.57-5.73 5.74-5.73a5.736 5.736 0 0 1 5.729 5.73v6.64c0 6.91 5.601 12.5 12.5 12.5h14.98c2.091 0 3.78 1.7 3.78 3.78zm47.601 12.51h-25.46c-4.66 9.63-14.53 16.28-25.92 16.28h-66.43c-11.39 0-21.26-6.65-25.92-16.28h-25.46c-6.43 0-11.67 5.23-11.67 11.67v210.52c0 6.44 5.24 11.67 11.67 11.67h169.19c6.43 0 11.67-5.23 11.67-11.67V216.2c0-6.44-5.24-11.67-11.67-11.67zM355.89 390.28l-20.38 20.38c-2.439 2.44-5.64 3.66-8.84 3.66s-6.4-1.22-8.84-3.66l-10.88-10.87c-4.88-4.89-4.88-12.8 0-17.68s12.8-4.88 17.68 0l2.04 2.03 11.54-11.54c4.88-4.88 12.8-4.88 17.68 0 4.88 4.89 4.88 12.8 0 17.68zm0-62.76-20.38 20.38c-2.439 2.44-5.64 3.66-8.84 3.66s-6.4-1.22-8.84-3.66l-10.88-10.87c-4.88-4.89-4.88-12.8 0-17.68s12.8-4.88 17.68 0l2.04 2.04 11.54-11.54c4.88-4.89 12.8-4.88 17.68 0s4.88 12.79 0 17.67zm0-62.76-20.38 20.38c-2.439 2.44-5.64 3.66-8.84 3.66s-6.4-1.22-8.84-3.66l-10.88-10.87c-4.88-4.88-4.88-12.8 0-17.68s12.8-4.88 17.68 0l2.04 2.04 11.54-11.54c4.88-4.88 12.8-4.88 17.68 0s4.88 12.79 0 17.67zm95.29 139.37h-70.93c-6.91 0-12.5-5.59-12.5-12.5 0-6.9 5.59-12.5 12.5-12.5h70.93c6.9 0 12.5 5.6 12.5 12.5 0 6.91-5.6 12.5-12.5 12.5zm0-62.76h-70.93c-6.91 0-12.5-5.59-12.5-12.5 0-6.9 5.59-12.5 12.5-12.5h70.93c6.9 0 12.5 5.6 12.5 12.5 0 6.91-5.6 12.5-12.5 12.5zm0-62.75h-70.93c-6.91 0-12.5-5.6-12.5-12.5 0-6.91 5.59-12.5 12.5-12.5h70.93c6.9 0 12.5 5.59 12.5 12.5 0 6.9-5.6 12.5-12.5 12.5z" fill="#64748b" opacity="1" data-original="#64748b" class=""></path></g></svg>