<svg xmlns="http://www.w3.org/2000/svg" version="1.1" xmlns:xlink="http://www.w3.org/1999/xlink" width="512" height="512" x="0" y="0" viewBox="0 0 3873 3873" style="enable-background:new 0 0 512 512" xml:space="preserve" class=""><g><path d="M2527.2 1158.6H1349.8v1573.6h.2c0 283.4 229.7 513.1 513.1 513.1h151.1c283.4 0 513.1-229.7 513.1-513.1V1158.6z" fill="#64748b" opacity="1" data-original="#64748b"></path><path d="M1102 3597.3h1673.1c59.5 0 106.6-48.6 106.6-106.4h-.2V1265.1c0-58.8-47.6-106.4-106.4-106.4h-157.3v1573.6c0 333.4-270.3 603.8-603.8 603.8h-151c-333.4 0-603.8-270.3-603.8-603.8h.2V1158.7H1102c-58.8 0-106.4 47.6-106.4 106.4h-.2v2225.8h.2c-.1 58.8 47.6 106.4 106.4 106.4zM1649.9 776.6h577.2v291.3h-577.2z" fill="#64748b" opacity="1" data-original="#64748b"></path><path fill-rule="evenodd" d="M2412.4 685.9V378c0-50.1-40.6-90.7-90.7-90.7h-766.5c-50.1 0-90.7 40.6-90.7 90.7v307.9zm-665.5-199.3c0-25 20.3-45.3 45.3-45.3h292.6c25 0 45.3 20.3 45.3 45.3s-20.3 45.3-45.3 45.3h-292.6c-25 .1-45.3-20.2-45.3-45.3z" clip-rule="evenodd" fill="#64748b" opacity="1" data-original="#64748b"></path></g></svg>