<svg xmlns="http://www.w3.org/2000/svg" version="1.1" xmlns:xlink="http://www.w3.org/1999/xlink" width="512" height="512" x="0" y="0" viewBox="0 0 60 60" style="enable-background:new 0 0 512 512" xml:space="preserve" class=""><g><path d="M10 12h12v2H10zM7 10h18a1 1 0 0 0 1-1V8H6v1a1 1 0 0 0 1 1zM26 3a1 1 0 0 0-1-1H7a1 1 0 0 0-1 1v3h20zM40.5 15h-3a.5.5 0 0 0-.5.5V19h4v-3.5a.5.5 0 0 0-.5-.5zM40.151 23.031A20.876 20.876 0 0 1 43 23.4V22a1 1 0 0 0-1-1h-6a1 1 0 0 0-1 1v1.4a21.157 21.157 0 0 1 5.151-.369zM40.044 25.028A19.46 19.46 0 0 0 38.99 25a19 19 0 0 0-13.464 32.39 2.035 2.035 0 0 0 1.446.61h24.056a2.038 2.038 0 0 0 1.449-.613A18.834 18.834 0 0 0 58 43.691a19.039 19.039 0 0 0-17.956-18.663zM39 51c-7.168 0-13-4.935-13-11s5.832-11 13-11 13 4.935 13 11-5.832 11-13 11z" fill="#64748b" opacity="1" data-original="#64748b"></path><ellipse cx="39" cy="40" rx="11" ry="9" fill="#64748b" opacity="1" data-original="#64748b"></ellipse><path d="M5 56a1 1 0 0 1 0-2h15.532a20.755 20.755 0 0 1-1.662-4H9a3 3 0 0 1-3-3V23a3 3 0 0 1 3-3h14a3 3 0 0 1 3 3v4.516a20.882 20.882 0 0 1 4-2.5V19a3 3 0 0 0-3-3H5a3 3 0 0 0-3 3v36a3 3 0 0 0 3 3h18.385a21.117 21.117 0 0 1-1.6-2z" fill="#64748b" opacity="1" data-original="#64748b"></path><path d="M24 23a1 1 0 0 0-1-1H9a1 1 0 0 0-1 1v24a1 1 0 0 0 1 1h9.384A21.162 21.162 0 0 1 18 44a20.778 20.778 0 0 1 6-14.664z" fill="#64748b" opacity="1" data-original="#64748b"></path></g></svg>