<svg xmlns="http://www.w3.org/2000/svg" version="1.1" xmlns:xlink="http://www.w3.org/1999/xlink" width="512" height="512" x="0" y="0" viewBox="0 0 24 24" style="enable-background:new 0 0 512 512" xml:space="preserve" class=""><g><path d="M10.48 11.15a4.285 4.285 0 0 0 .77.24v9.52a2.64 2.64 0 0 1-.47-.17l-6-2.67A3 3 0 0 1 3 15.33V8.67a2.955 2.955 0 0 1 .11-.79zm4.34-2.23L6.67 5.09l-1.89.84a2.909 2.909 0 0 0-.91.63l7.21 3.21a2.268 2.268 0 0 0 1.84 0zm5.31-2.36a2.909 2.909 0 0 0-.91-.63l-6-2.67a2.966 2.966 0 0 0-2.44 0L8.49 4.28l8.15 3.83zm.76 1.32-3.51 1.56v2.45a.75.75 0 1 1-1.5 0V10.1l-2.36 1.05a5.275 5.275 0 0 1-.77.24v9.52a2.64 2.64 0 0 0 .47-.17l6-2.67A3 3 0 0 0 21 15.33V8.67a2.955 2.955 0 0 0-.11-.79z" fill="#64748b" opacity="1" data-original="#000000" class=""></path></g></svg>