<svg xmlns="http://www.w3.org/2000/svg" version="1.1" xmlns:xlink="http://www.w3.org/1999/xlink" width="512" height="512" x="0" y="0" viewBox="0 0 512 512" style="enable-background:new 0 0 512 512" xml:space="preserve" class=""><g><path fill-rule="evenodd" d="M162.496 346.058h47.49l35.559 35.682v-17.719l-11.199-11.192h11.199V292.42l-60.902-35.188-36.788 21.288v50.808H41.434v-71.112h106.421v5.908l24.239-14.025-55.609-32.112v5.537H10.186V152.41h106.299v51.179l71.109 40.973.127.121 57.824 33.347v-62.011h-46.879v-63.978l-59.42-34.324h-93.87V46.48h106.293v63.976l59.424 34.329h34.452V77.238h-46.879V6.001h106.301v71.237H258.09v67.547h34.451l59.424-34.329V46.48h106.298v71.234h-93.872l-59.425 34.324v63.978h-46.877v62.011l57.826-33.347.245-.121 79.359-45.768v-46.384h106.294v71.114H395.52v-10.338l-63.977 36.913 24.359 14.025v-5.908H462.2v71.112H355.902V278.52l-36.785-21.288-61.027 35.188v91.044h83.05c8.12 0 14.763 6.643 14.763 14.764v93.134c0 8.121-6.643 14.639-14.763 14.639H162.496a14.596 14.596 0 0 1-14.642-14.639V360.703c0-7.997 6.522-14.645 14.642-14.645zm70.129-177.529c-3.443 0-6.274-2.71-6.274-6.155 0-3.564 2.832-6.275 6.274-6.275h46.751c3.445 0 6.272 2.711 6.272 6.275 0 3.445-2.827 6.155-6.272 6.155zm-8.368 36.171c-3.442 0-6.149-2.833-6.149-6.277 0-3.443 2.707-6.274 6.149-6.274h24.609c3.44 0 6.271 2.831 6.271 6.274 0 3.444-2.831 6.277-6.271 6.277zm40.6 0c-3.444 0-6.148-2.833-6.148-6.277 0-3.443 2.704-6.274 6.148-6.274h14.519c3.445 0 6.272 2.831 6.272 6.274 0 3.444-2.827 6.277-6.272 6.277zm-40.6-18.086c-3.442 0-6.149-2.832-6.149-6.277 0-3.441 2.707-6.149 6.149-6.149h55.119c3.445 0 6.272 2.708 6.272 6.149 0 3.445-2.827 6.277-6.272 6.277zM79.324 70.226c-3.44 0-6.271-2.705-6.271-6.151 0-3.445 2.831-6.273 6.271-6.273h46.757c3.445 0 6.273 2.828 6.273 6.273 0 3.446-2.828 6.151-6.273 6.151zm-8.363 36.17c-3.445 0-6.148-2.826-6.148-6.271 0-3.447 2.704-6.274 6.148-6.274h24.605c3.447 0 6.275 2.827 6.275 6.274 0 3.445-2.829 6.271-6.275 6.271zm40.601 0c-3.445 0-6.271-2.826-6.271-6.271 0-3.447 2.825-6.274 6.271-6.274h14.519c3.445 0 6.273 2.827 6.273 6.274 0 3.445-2.828 6.271-6.273 6.271zM70.961 88.311c-3.445 0-6.148-2.704-6.148-6.273 0-3.445 2.704-6.151 6.148-6.151h55.12c3.445 0 6.273 2.706 6.273 6.151 0 3.569-2.828 6.273-6.273 6.273zm-26.82 87.841c-3.447 0-6.278-2.826-6.278-6.273 0-3.444 2.832-6.272 6.278-6.272h46.751c3.446 0 6.277 2.828 6.277 6.272 0 3.447-2.831 6.273-6.277 6.273zM35.774 212.2c-3.446 0-6.15-2.703-6.15-6.147 0-3.447 2.704-6.274 6.15-6.274h24.605c3.449 0 6.278 2.827 6.278 6.274 0 3.444-2.829 6.147-6.278 6.147zm40.601 0c-3.442 0-6.272-2.703-6.272-6.147 0-3.447 2.831-6.274 6.272-6.274h14.518c3.446 0 6.277 2.827 6.277 6.274 0 3.444-2.831 6.147-6.277 6.147zm-40.601-17.961c-3.446 0-6.15-2.827-6.15-6.273 0-3.445 2.704-6.273 6.15-6.273h55.119c3.446 0 6.277 2.828 6.277 6.273 0 3.446-2.831 6.273-6.277 6.273zm39.618 87.721c-3.445 0-6.273-2.826-6.273-6.273 0-3.446 2.828-6.271 6.273-6.271h46.751c3.445 0 6.273 2.825 6.273 6.271 0 3.447-2.828 6.273-6.273 6.273zm-8.244 36.171c-3.447 0-6.278-2.827-6.278-6.271 0-3.447 2.831-6.274 6.278-6.274h24.486c3.565 0 6.272 2.827 6.272 6.274 0 3.443-2.707 6.271-6.272 6.271zm40.601 0c-3.446 0-6.272-2.827-6.272-6.271 0-3.447 2.826-6.274 6.272-6.274h14.394c3.445 0 6.273 2.827 6.273 6.274 0 3.443-2.828 6.271-6.273 6.271zm-40.601-18.083c-3.447 0-6.278-2.828-6.278-6.275 0-3.446 2.831-6.271 6.278-6.271h54.995c3.445 0 6.273 2.824 6.273 6.271s-2.828 6.275-6.273 6.275zm322.709-18.088c-3.441 0-6.273-2.826-6.273-6.273 0-3.446 2.832-6.271 6.273-6.271h46.751c3.447 0 6.279 2.825 6.279 6.271 0 3.447-2.832 6.273-6.279 6.273zm-8.366 36.171c-3.443 0-6.275-2.827-6.275-6.271 0-3.447 2.832-6.274 6.275-6.274h24.608c3.442 0 6.273 2.827 6.273 6.274 0 3.443-2.832 6.271-6.273 6.271zm40.603 0c-3.449 0-6.277-2.827-6.277-6.271 0-3.447 2.828-6.274 6.277-6.274h14.514c3.447 0 6.279 2.827 6.279 6.274 0 3.443-2.832 6.271-6.279 6.271zm-40.603-18.083c-3.443 0-6.275-2.828-6.275-6.275 0-3.446 2.832-6.271 6.275-6.271h55.117c3.447 0 6.279 2.824 6.279 6.271s-2.832 6.275-6.279 6.275zm47.984-123.896c-3.445 0-6.277-2.826-6.277-6.273 0-3.444 2.832-6.272 6.277-6.272h46.751c3.445 0 6.276 2.828 6.276 6.272 0 3.447-2.831 6.273-6.276 6.273zm-8.37 36.048c-3.445 0-6.275-2.703-6.275-6.147 0-3.447 2.831-6.274 6.275-6.274h24.605c3.446 0 6.279 2.827 6.279 6.274 0 3.444-2.833 6.147-6.279 6.147zm40.604 0c-3.446 0-6.273-2.703-6.273-6.147 0-3.447 2.827-6.274 6.273-6.274h14.517c3.445 0 6.276 2.827 6.276 6.274 0 3.444-2.831 6.147-6.276 6.147zm-40.604-17.961c-3.445 0-6.275-2.827-6.275-6.273 0-3.445 2.831-6.273 6.275-6.273h55.12c3.445 0 6.276 2.828 6.276 6.273 0 3.446-2.831 6.273-6.276 6.273zM385.923 70.226c-3.45 0-6.277-2.705-6.277-6.151 0-3.445 2.827-6.273 6.277-6.273h46.751c3.443 0 6.274 2.828 6.274 6.273 0 3.446-2.832 6.151-6.274 6.151zm-8.367 36.17c-3.445 0-6.153-2.826-6.153-6.271 0-3.447 2.708-6.274 6.153-6.274h24.605c3.446 0 6.278 2.827 6.278 6.274 0 3.445-2.832 6.271-6.278 6.271zm40.598 0c-3.443 0-6.15-2.826-6.15-6.271 0-3.447 2.708-6.274 6.15-6.274h14.521c3.443 0 6.274 2.827 6.274 6.274 0 3.445-2.832 6.271-6.274 6.271zm-40.598-18.085c-3.445 0-6.153-2.704-6.153-6.273 0-3.445 2.708-6.151 6.153-6.151h55.119c3.443 0 6.274 2.706 6.274 6.151 0 3.569-2.832 6.273-6.274 6.273zM232.625 29.873c-3.443 0-6.274-2.833-6.274-6.274 0-3.443 2.832-6.276 6.274-6.276h46.751c3.445 0 6.272 2.833 6.272 6.276 0 3.441-2.827 6.274-6.272 6.274zm-8.368 36.043c-3.442 0-6.149-2.703-6.149-6.149 0-3.569 2.707-6.271 6.149-6.271h24.609c3.44 0 6.271 2.701 6.271 6.271 0 3.446-2.831 6.149-6.271 6.149zm40.6 0c-3.444 0-6.148-2.703-6.148-6.149 0-3.569 2.704-6.271 6.148-6.271h14.519c3.445 0 6.272 2.701 6.272 6.271 0 3.446-2.827 6.149-6.272 6.149zm-40.6-18.085c-3.442 0-6.149-2.703-6.149-6.15 0-3.445 2.707-6.275 6.149-6.275h55.119c3.445 0 6.272 2.83 6.272 6.275 0 3.447-2.827 6.15-6.272 6.15zm46.387 304.997h61.019c8.12 0 14.765 6.642 14.765 14.641v4.061c-1.72-.371-3.445-.493-5.289-.493h-70.496v-18.209z" clip-rule="evenodd" fill="#64748b" opacity="1" data-original="#000000"></path></g></svg>