<svg xmlns="http://www.w3.org/2000/svg" version="1.1" xmlns:xlink="http://www.w3.org/1999/xlink" width="512" height="512" x="0" y="0" viewBox="0 0 64 64" style="enable-background:new 0 0 512 512" xml:space="preserve" class=""><g><rect width="20" height="15.5" x="4" y="44.5" rx="2" fill="#64748b" opacity="1" data-original="#000000" class=""></rect><rect width="20" height="15.5" x="40" y="44.5" rx="2" fill="#64748b" opacity="1" data-original="#000000" class=""></rect><path d="M46.49 33a2.386 2.386 0 0 1 2.38 2.38V41a1 1 0 0 0 2 0v-5.62A4.385 4.385 0 0 0 46.49 31h-4.37A9.129 9.129 0 0 1 33 21.88V19.5h11.5a2.006 2.006 0 0 0 2-2V6a2.006 2.006 0 0 0-2-2h-25a2.006 2.006 0 0 0-2 2v11.5a2.006 2.006 0 0 0 2 2H31v2.38A9.129 9.129 0 0 1 21.88 31h-4.5A4.379 4.379 0 0 0 13 35.38V41a1 1 0 0 0 2 0v-5.62A2.386 2.386 0 0 1 17.38 33h4.5A11.135 11.135 0 0 0 32 26.46 11.135 11.135 0 0 0 42.12 33Z" fill="#64748b" opacity="1" data-original="#000000" class=""></path></g></svg>