<svg xmlns="http://www.w3.org/2000/svg" version="1.1" xmlns:xlink="http://www.w3.org/1999/xlink" width="512" height="512" x="0" y="0" viewBox="0 0 64 64" style="enable-background:new 0 0 512 512" xml:space="preserve" class=""><g><path d="M41.57 20.74C27.334 13.573 9.7 24.426 9.9 40.41a21.677 21.677 0 0 0 10.58 18.67 6.355 6.355 0 0 0 3.29.92h16.46a6.355 6.355 0 0 0 3.29-.92c15.047-8.991 13.558-30.899-1.95-38.34zm-23.49 5.33a20.147 20.147 0 0 1 18.51-5.01 19.428 19.428 0 0 1 4.2 1.52 20.212 20.212 0 0 1 11.23 16.15c-.56-.02-1.06-.06-1.51-.12-4.833-.687-5.415-2.448-11.4-2.4-7.25-.028-7.274 2.523-14.3 2.55-5.752.038-5.995-1.777-10.95-2.4-.46-.06-.96-.1-1.52-.12a19.615 19.615 0 0 1 5.74-10.17z" fill="#64748b" opacity="1" data-original="#64748b"></path><path d="M27.43 17.45a23.515 23.515 0 0 1 12.64 1.02v-2.51a3.065 3.065 0 0 0-3.48-2.98h-9.66a2.992 2.992 0 0 0-3 2.98v2.46a23.365 23.365 0 0 1 3.5-.97zM36.59 11.48V5a.997.997 0 0 0-1-1h-7.18a.997.997 0 0 0-1 1v6.48h9.18zM32.12 9.4a1.215 1.215 0 0 1 0-2.43 1.215 1.215 0 0 1 0 2.43z" fill="#64748b" opacity="1" data-original="#64748b"></path></g></svg>